<?xml version="1.0" encoding="utf-8"?>
<!-- Generator: Adobe Illustrator 16.0.0, SVG Export Plug-In . SVG Version: 6.00 Build 0)  -->
<!DOCTYPE svg PUBLIC "-//W3C//DTD SVG 1.1//EN" "http://www.w3.org/Graphics/SVG/1.1/DTD/svg11.dtd">
<svg version="1.1" id="Layer_1" xmlns="http://www.w3.org/2000/svg" xmlns:xlink="http://www.w3.org/1999/xlink" x="0px" y="0px"
	 width="500px" height="422px" viewBox="0 0 500 422" enable-background="new 0 0 500 422" xml:space="preserve">
<g id="BACKGROUND">
</g>
<g>
	<path fill="#ECF3FF" d="M112.414,59.949c15.62,1.045,22.154-9.612,29.494-23.311C162-0.864,206.746,2.75,221.756,25.843
		c10.632,16.357,33.559,12.992,52.104,6.591c18.254-6.301,49.354-12.354,74.127-4.824c21.636,6.577,30.514,30.302,50.234,28.842
		c43.025-3.184,64.716,39.293,56.924,57.818c-5.087,12.091-7.61,25.617-3.477,38.059c4.555,13.704,14.958,24.552,23.367,36.331
		c8.408,11.78,15.181,26.506,11.001,40.325c-3.577,11.826-14.247,20.008-20.871,30.465c-20.568,32.475-0.222,82.242-27.628,109.311
		c-19.618,19.375-51.604,14.902-79.053,18.601c-22.894,3.084-44.436,12.696-67.221,16.466c-46.147,7.627-92.75-9.175-139.535-9.648
		c-16.479-0.165-33.267,1.671-49.228-2.395c-21.295-5.423-39.417-21.809-46.806-42.318C45.501,321.159,55.161,288.4,43.643,260.6
		c-9.383-22.647-32.328-41.076-30.884-65.516c0.897-15.216,11.294-27.943,18.443-41.44C41.831,133.584,27.762,54.284,112.414,59.949
		z M248.592,23.207c-4.105,0-7.434,2.55-7.434,5.695c0,3.145,3.337,5.424,7.434,5.695c13.35,0.882,13.35-4.516,13.35-7.66
		C261.941,21.912,252.697,23.207,248.592,23.207z M384.168,47.491c3.57,2.948,8.119,4.713,12.761,4.951
		c1.239,0.063,2.589-0.016,3.545-0.8c1.185-0.973,1.312-2.957,0.263-4.069c-0.659-0.7-1.621-1.014-2.518-1.377
		c-1.524-0.62-3.021-1.508-3.886-2.899c-0.251-0.403-0.468-0.866-0.883-1.101C390.866,40.742,379.471,43.612,384.168,47.491z
		 M406.908,52.522c1.175,0.406,2.463,0.032,3.646-0.353c0.759-0.246,1.689-0.789,1.485-1.553c-0.098-0.368-0.444-0.613-0.783-0.793
		c-1.557-0.833-3.575-1.447-5.14-0.381C404.552,50.507,405.732,52.116,406.908,52.522z M461.201,159.787
		c0.203,1.771,1.296,3.302,2.354,4.745c2.04,2.782,4.111,5.6,6.807,7.77c1.139,0.919,2.464,1.74,3.932,1.791
		c1.338,0.047,2.618-0.559,3.702-1.336c2.642-1.893,4.424-4.918,4.789-8.127c0.501-4.402-1.548-8.688-3.931-12.438
		c-1.476-2.322-3.194-4.638-5.664-5.883c-4.14-2.088-6.873-0.266-8.029,3.4C464.095,153.08,460.771,156.03,461.201,159.787z
		 M20.82,262.293c-2.18,1.92-0.213,7.539,0.431,11.248c0.192,1.111,0.45,2.262,1.153,3.15c0.959,1.215,2.555,1.713,4.051,2.146
		c2.652,0.771,5.869,1.422,7.895-0.44c1.504-1.383,1.717-3.638,1.713-5.67c-0.002-1.854-0.103-3.711-0.299-5.558
		c-0.096-0.885-0.223-1.801-0.697-2.558c-0.606-0.969-1.688-1.532-2.746-1.979C28.527,261.025,23.001,260.373,20.82,262.293z
		 M154.04,403.059c-1.29,0.262-2.829,0.816-3.017,2.105c-0.153,1.066,0.744,1.977,1.612,2.623
		c7.114,5.307,16.687,5.646,25.593,5.771c1.039,0.016,2.115,0.021,3.072-0.381c1.905-0.803,2.819-3.313,1.932-5.164
		c-0.323-0.676-0.834-1.246-1.373-1.77C174.705,399.279,162.943,401.273,154.04,403.059z M331.697,399.469
		c-8.028,5.873,0.092,11.115,10.23,7.227c5.465-2.098,10.704-4.166,16.297-5.568c1.809-0.453,12.736-2.816,12.737-5.271
		c0.004-6.509-12.313-4.973-20.062-3.889C344.658,392.842,338.318,394.625,331.697,399.469z"/>
</g>
<g id="DESIGNED_BY_FREEPIK">
</g>
<g>
	<g>
		<path fill="none" stroke="#C8DBFB" stroke-linecap="round" stroke-linejoin="round" d="M458.423,127.419
			c-0.107-0.672-0.229-1.329-0.355-1.968"/>
		<path fill="none" stroke="#C8DBFB" stroke-linecap="round" stroke-linejoin="round" stroke-dasharray="3.9929,3.9929" d="
			M457.114,121.572c-6.896-23.479-28.879-21.214-48.748-21.173c-21.389,0.044-352.509,0.728-352.509,0.728
			c-33.275,0.069-30.055,48.107-4,48.054c14.98-0.031,20.676,28.098-5.225,28.15c-15.539,0.032-16.036,19.729-5.589,23.675"/>
		<path fill="none" stroke="#C8DBFB" stroke-linecap="round" stroke-linejoin="round" d="M42.965,201.526
			c0.634,0.108,1.3,0.166,1.997,0.164"/>
	</g>
	<circle fill="#5193F4" cx="44.326" cy="201.585" r="4.789"/>
	<circle fill="#5193F4" cx="458.425" cy="128.714" r="4.789"/>
	<path fill="#5E82B5" d="M97.862,165.798c-0.69,3.891-1.7,7.69-2.931,11.44c-2.649,8.09-6.31,15.88-10.01,23.57
		c-1.93,4.02-9.76,13.319-13.96,15.089c0.49-10.49,0.53-22.74-0.69-33.331c-1.17-10.2,2.5-17.93-1.5-27.39
		c-0.51-1.211-1.04-2.421-1.57-3.631c-1.99-4.5-3.96-9.02-4.58-13.869c-0.8-6.15,1.11-13.16,6.43-16.36
		c3.83-2.3,8.82-2.18,12.91-0.37c4.09,1.81,7.37,5.12,9.86,8.83C98.792,140.14,100.052,153.52,97.862,165.798z"/>
	<path fill="none" stroke="#0B43A4" stroke-linecap="round" stroke-linejoin="round" stroke-miterlimit="10" d="M79.262,131.825
		c7.831,11.056,8.51,23.939,9.188,37.471c0.679,13.532-2.573,27.238-9.259,39.022"/>
	<path fill="#00AD9F" d="M78.935,335.805c-5.488-4.852-11.041-9.773-15.096-15.873c-3.532-5.313-5.812-11.344-8.893-16.93
		c-1.994-3.613-4.348-7.096-5.503-11.059c-1.155-3.963-0.878-8.656,1.938-11.674c2.937-3.148,7.989-3.631,11.977-2.01
		c3.988,1.621,7.037,4.977,9.365,8.598c3.092,4.811,5.157,10.273,6.019,15.928c0.78,5.123,0.581,10.356,1.376,15.477
		c0.741,4.771,2.345,9.354,4.366,13.722c1.833,3.966,6.477,11.03,7.663,15.095C88.863,348.721,81.273,337.871,78.935,335.805z"/>
	<path fill="none" stroke="#00AD9F" stroke-linecap="round" stroke-linejoin="round" stroke-miterlimit="10" d="M59.746,285.508
		c5.218,2.285,7.293,8.508,8.382,14.1c1.239,6.363,0.964,13.256,3.882,19.044c5.496,10.905,12.65,23.319,17.966,27.028"/>
	<path fill="#3A5796" d="M51.925,320.883c-4.554-1.797-10.636-2.537-13.556,1.396c-2.445,3.291-1.179,7.955,0.51,11.69
		c1.426,3.152,3.237,6.359,6.244,8.074c2.054,1.172,4.46,1.523,6.808,1.803c6.548,0.779,13.144,1.16,19.738,1.143
		c7.643-0.021,16.901,3.1,23.226,7.866C86.779,337.768,67.252,326.938,51.925,320.883z"/>
	<path fill="none" stroke="#0B43A4" stroke-linecap="round" stroke-linejoin="round" stroke-miterlimit="10" d="M43.935,330.689
		c5.797,0.248,11.647,0.653,17.211,2.301c5.69,1.682,27.578,11.727,30.999,16.002"/>
	<path fill="#52D2BC" d="M101.601,289.93c-5.926-9.281-16.067-15.76-26.984-17.227c-8.06-1.082-16.354,0.426-24.309-1.252
		c-8.357-1.752-15.897-7.137-20.262-14.486c-4.365-7.348-5.501-16.535-3.048-24.723c1.869-6.223,6.138-12.117,12.319-14.113
		c3.367-1.083,7.052-0.936,10.492-0.105c3.175,0.766,6.128,2.092,8.846,3.822c6.223,3.939,11.247,10.004,15.027,16.439
		c3.43,5.852,11.895,14.963,17.65,20.889c3.377,3.463,5.83,5.83,5.83,5.83C101.114,269.91,99.265,284.078,101.601,289.93z"/>
	<path fill="none" stroke="#00AD9F" stroke-linecap="round" stroke-linejoin="round" stroke-miterlimit="10" d="M37.521,236.119
		c19.367,8.744,40.494,20.203,54.229,36.418"/>
	<path opacity="0.2" fill="#5275A0" enable-background="new    " d="M93.605,270.357c0,0-28.863-23.396-34.949-48.512
		c6.223,3.938,11.247,10.004,15.027,16.438c3.43,5.854,11.895,14.963,17.65,20.889C92.013,262.318,92.767,266.002,93.605,270.357z"
		/>
	<path opacity="0.2" fill="#5275A0" enable-background="new    " d="M94.931,177.239c-2.649,8.09-6.31,15.88-10.01,23.57
		c-1.93,4.02-9.76,13.319-13.96,15.089c0.49-10.49,0.53-22.74-0.69-33.331c-1.17-10.2,2.5-17.93-1.5-27.39
		c-0.51-1.211-1.04-2.421-1.57-3.631c0.37,0.12,0.73,0.25,1.08,0.4c6.58,2.82,9.62,9.78,10.18,16.54
		c0.47,5.58-0.54,11.17-1.29,16.72c-0.35,2.561-0.63,5.181-0.08,7.69c0.01,0.03,0.02,0.05,0.02,0.08
		c0.69,2.989,5.06,2.819,5.62-0.21l1.75-9.29c0.52-2.78,1.09-5.69,3.37-7.63c0.9-0.771,2.06-1.25,3.24-1.21
		C92.972,174.708,94.152,175.81,94.931,177.239z"/>
	<path fill="#7EE8D4" d="M93.61,264.49c-4.56-23.809-6.957-27.477-4.951-33.445c2.555-7.605,1.119-15.253,3.53-22.905
		c2.41-7.653,4.052-15.884,2.106-23.667c-0.614-2.461-1.86-5.146-4.817-5.247c-1.187-0.041-2.341,0.437-3.245,1.207
		c-2.279,1.941-2.854,4.851-3.375,7.63l-1.741,9.292c-0.566,3.021-4.932,3.199-5.623,0.203c-0.006-0.025-0.012-0.051-0.017-0.075
		c-0.559-2.515-0.271-5.133,0.073-7.688c0.749-5.555,1.758-11.143,1.296-16.729c-0.559-6.759-3.601-13.72-10.185-16.533
		c-2.334-0.998-4.968-1.224-7.427-0.593c-6.872,1.764-8.65,8.479-7.643,14.214c0.709,4.035,2.603,7.746,4.315,11.468
		c4.18,9.092,1.114,17.431,1.692,27.42C59.197,236.611,93.61,264.49,93.61,264.49z"/>
	<path fill="none" stroke="#00AD9F" stroke-linecap="round" stroke-linejoin="round" stroke-miterlimit="10" d="M62.95,163.147
		c3.391,16.939,6.819,34.003,13.4,49.976c1.93,4.686,2.874,10.85,14.042,23.594"/>
	<path fill="#5E82B5" d="M195.191,167.489c-3.51-4.01-6.75-8.09-10.159-12.02c-2.21-2.551-4.49-5.04-6.97-7.4
		c-1.23-1.18-2.5-2.32-3.84-3.43c-7.92-6.54-16.761-11.971-26.211-16.011c-5.699-2.439-11.72-4.449-16.56-8.34
		c-4.84-3.88-8.319-10.26-6.71-16.25c1.17-4.319,4.84-7.68,9.05-9.22c4.2-1.53,8.86-1.41,13.229-0.47
		c12.201,2.63,22.391,11.399,29.32,21.77c0.12,0.18,0.25,0.37,0.37,0.561c5.08,7.75,8.63,16.369,11.72,25.149
		c0.99,2.82,1.931,5.66,2.86,8.49C192.691,154.548,196.992,163.298,195.191,167.489z"/>
	<path fill="none" stroke="#0B43A4" stroke-linecap="round" stroke-linejoin="round" stroke-miterlimit="10" d="M139.384,104.532
		c13.31,2.538,22.73,11.351,32.603,20.632s17.03,21.412,20.384,34.54"/>
	<path opacity="0.2" fill="#5275A0" enable-background="new    " d="M185.032,155.469c-0.11,1.38-0.07,2.76,0.19,4.159
		c-3.33-0.76-5.641-5.93-7.16-11.56c-1.49-5.47-2.23-11.39-2.461-14.12c-0.449-5.76-0.08-11.6,1.11-17.27
		c5.08,7.75,8.63,16.369,11.72,25.149c-1.06,3.15-1.97,6.34-2.72,9.561C185.392,152.758,185.142,154.109,185.032,155.469z"/>
	<path fill="#52D2BC" d="M208.128,107.418c-1.125,4.991-4.142,9.304-6.796,13.679c-1.401,2.305-2.708,4.673-3.93,7.072
		c-3.908,7.679-6.892,15.834-8.856,24.225c-0.648,2.75-1.009,5.447-0.488,8.24c-6.563-1.497-9.176-20.146-9.623-25.688
		c-0.785-9.982,0.914-20.209,5.023-29.354c1.794-4.014,4.11-7.953,7.678-10.523c3.559-2.57,8.603-3.473,12.373-1.232
		c2.271,1.35,3.728,3.589,4.438,6.139C208.638,102.354,208.669,105.008,208.128,107.418z"/>
	<path fill="none" stroke="#00AD9F" stroke-linecap="round" stroke-linejoin="round" stroke-miterlimit="10" d="M185.542,155.13
		c-4.08-10.247-1.601-31.936,4.944-45.567c1.972-4.107,4.779-7.958,8.714-10.253"/>
	<path opacity="0.2" fill="#5275A0" enable-background="new    " d="M208.128,107.418c-1.125,4.991-4.142,9.304-6.796,13.679
		c-1.401,2.305-2.708,4.673-3.93,7.072c-1.794-3.016-3.017-6.351-3.354-9.834c-0.553-5.809,1.666-12.031,6.393-15.452
		c2.209-1.593,4.8-2.495,7.508-2.909C208.638,102.354,208.669,105.008,208.128,107.418z"/>
	<path fill="#00AD9F" d="M245.976,150.822c-0.308,1.912-0.881,3.749-1.698,5.522c-2.91,6.297-9.017,11.702-18.171,16.1
		c0,0-0.508-9.961-0.615-12.627c-0.446-11.417-12.839-17.735-20.678-26.062c-3.992-4.248-7.02-9.61-7.582-15.42
		c-0.553-5.809,1.666-12.031,6.393-15.452c3.961-2.855,9.145-3.482,14.018-3.11c7.859,0.626,15.793,3.918,20.678,10.057
		c0.212,0.234,0.393,0.479,0.572,0.723c2.996,4.089,4.535,9.068,5.662,14.028C246.509,133.171,247.39,142.114,245.976,150.822z"/>
	<path fill="none" stroke="#00AD9F" stroke-linecap="round" stroke-linejoin="round" stroke-miterlimit="10" d="M206.993,109.009
		c8.577,4.437,17.169,9.8,22.165,18.063c6.969,11.528,5.449,26.528,0.074,38.88"/>
	<path fill="#52D2BC" d="M389.474,224.473c5.469-9,2.676-20.576,4.577-30.933c1.463-7.962,5.896-15.343,12.231-20.379
		c3.979-3.161,9.564-5.418,14.061-3.049c0.976,0.514,2.134,1.235,3.069,0.659c0.56-0.346,0.784-1.038,0.916-1.683
		c1.14-5.594-1.55-11.704,0.647-16.973c1.184-2.837,3.631-4.956,6.224-6.608c4.997-3.186,10.846-5.021,16.768-5.261
		c1.572-0.063,3.208-0.003,4.615,0.702c2.541,1.274,3.703,4.438,3.362,7.261c-0.341,2.823-1.897,5.349-3.625,7.606
		c-5.741,7.507-14.154,13.984-15.265,23.371c-0.141,1.185-0.141,2.439,0.403,3.501c0.526,1.024,1.506,1.757,2.059,2.77
		c1.769,3.25-1.647,6.937-4.984,8.533c-3.047,1.459-6.354,2.374-9.717,2.689c-2.315,0.217-4.935,0.271-6.51,1.982
		c-2.905,3.158,0.435,8.207-0.177,12.455c-0.381,2.652-2.305,4.792-4.233,6.65c-3.586,3.446-7.513,6.543-11.699,9.227
		c-3.396,2.176-6.99,4.098-10.001,6.781c-3.011,2.683-5.444,6.313-5.642,10.344"/>
	<path fill="none" stroke="#00AD9F" stroke-linecap="round" stroke-linejoin="round" stroke-miterlimit="10" d="M396.679,215.719
		c0.896-4.361,2.925-8.395,4.934-12.369c3.14-6.21,6.341-12.512,11.083-17.604c3.601-3.867,7.991-6.927,11.65-10.736
		c2.61-2.715,4.835-5.801,6.582-9.138c0.947-1.809,1.769-3.71,3.047-5.302c1.518-1.891,3.593-3.238,5.396-4.856
		c2.439-2.184,4.404-4.895,5.723-7.892"/>
	<path fill="#5E82B5" d="M467.981,230.719c-1.23,4.74-3.063,9.43-6.2,13.189c-2.17,2.59-4.87,4.641-7.82,6.311
		c-1.52,0.869-3.12,1.629-4.729,2.313c-6.263,2.629-12.99,4.117-19.771,4.379c-9.88,0.371-20.04-1.813-29.52,1.01
		c-4.353,1.291-8.36,3.643-11.65,6.75c-2.06,1.932-3.83,4.16-5.229,6.611l1.291-8.201c2.39-8.82,4.828-17.799,9.71-25.529
		c3.147-5.01,7.237-9.369,11.59-13.381c6.95-6.419,14.66-12.068,23.17-16.199c6.88-3.341,14.52-5.69,22.12-4.761
		c7.59,0.92,15.05,5.721,17.42,12.99C469.881,220.868,469.221,225.969,467.981,230.719z"/>
	<path fill="none" stroke="#0B43A4" stroke-linecap="round" stroke-linejoin="round" stroke-miterlimit="10" d="M390.812,256.836
		c7.261-10.742,18.135-18.996,30.434-23.102c7.664-2.561,15.768-3.531,23.53-5.771c7.762-2.24,15.507-6.044,20.058-12.719"/>
	<path fill="#52D2BC" d="M395.595,335.607c0.435-11.027,6.136-21.211,13.06-29.809c5.772-7.168,12.743-13.729,21.35-16.994
		c2.696-1.023,5.656-1.709,8.457-1.021c2.8,0.688,5.339,3.084,5.392,5.969c0.043,2.432-1.592,4.555-3.312,6.277
		c-5.658,5.666-12.972,9.303-19.825,13.444c-11.778,7.119-22.977,16.623-27.65,29.569"/>
	<path fill="none" stroke="#00AD9F" stroke-linecap="round" stroke-linejoin="round" stroke-miterlimit="10" d="M399.954,325.957
		c7.199-16.059,25.836-30.418,38.128-32.211"/>
	<path fill="#00AD9F" d="M391.095,344.377c-0.099-1.85,5.931-6.682,7.287-7.914c7.525-6.824,16.475-11.846,25.921-14.811
		c3.824-1.201,7.888-2.074,11.712-1.15c3.825,0.924,7.337,4.057,7.713,8.184c0.362,4.003-2.321,7.919-5.747,9.854
		c-3.428,1.938-7.435,2.229-11.253,2.008c-5.904-0.344-11.7-1.812-17.625-1.766C403.175,338.826,394.856,339.426,391.095,344.377z"
		/>
	<path fill="none" stroke="#00AD9F" stroke-linecap="round" stroke-linejoin="round" stroke-miterlimit="10" d="M397.233,338.764
		c12.11-6.561,30.425-10.832,43.72-9.223"/>
	<path opacity="0.2" fill="#5275A0" enable-background="new    " d="M245.976,150.822c-0.308,1.912-0.881,3.749-1.698,5.522
		c-4.248-9.006-7.986-20.772-8.89-35.216c-0.244-3.907,0.851-7.933,2.932-11.3c0.212,0.234,0.393,0.479,0.572,0.722
		c2.996,4.09,4.535,9.069,5.662,14.029C246.509,133.171,247.39,142.114,245.976,150.822z"/>
	<path fill="#7EE8D4" d="M287.868,150.318c9.044-3.212,18.436-5.774,26.658-10.727c2.484-1.496,4.883-3.237,6.646-5.542
		c1.765-2.304,2.851-5.242,2.455-8.117c-0.397-2.924-2.271-5.725-1.641-8.606c0.415-1.9,1.841-3.385,2.931-4.996
		c2.594-3.832,3.364-8.841,2.046-13.275c-1.418-4.766-4.987-8.577-7.021-13.114c-1.66-3.705-2.254-7.881-1.692-11.902
		c-7.586,0.103-14.511,4.246-21.971,5.629c-5.706,1.059-11.644,0.483-17.3,1.783c-10.313,2.37-18.743,11.447-20.35,21.908
		c-4.783-0.822-9.931,0.903-13.255,4.44c-3.535,3.764-5.523,9.107-5.203,14.261c2.331,37.428,23.759,56.954,23.759,56.954
		S284.42,151.542,287.868,150.318z"/>
	<g>
		<path fill="none" stroke="#00AD9F" stroke-linecap="round" stroke-linejoin="round" stroke-miterlimit="10" d="M267.64,150.056
			c-0.938-9.233,2.285-18.359,5.992-26.869c3.612-8.292,7.77-16.421,13.348-23.541s12.668-13.225,21.039-16.656"/>
		<path fill="none" stroke="#00AD9F" stroke-linecap="round" stroke-linejoin="round" stroke-miterlimit="10" d="M275.688,88.654
			c-0.95,8.23-0.285,18.148,1.856,26.152"/>
		<path fill="none" stroke="#00AD9F" stroke-linecap="round" stroke-linejoin="round" stroke-miterlimit="10" d="M279.087,111.858
			c9.401-6.03,23.863-9.692,35.016-9.053"/>
		<path fill="none" stroke="#00AD9F" stroke-linecap="round" stroke-linejoin="round" stroke-miterlimit="10" d="M256.099,113.397
			c11.316,4.771,11.783,21.414,12.086,26.142"/>
		<path fill="none" stroke="#00AD9F" stroke-linecap="round" stroke-linejoin="round" stroke-miterlimit="10" d="M271.269,128.957
			c8.66-6.211,21.174-8.078,30.384-5.762"/>
		<path fill="none" stroke="#00AD9F" stroke-linecap="round" stroke-linejoin="round" stroke-miterlimit="10" d="M294.894,84.379
			c-2.604,3.212-3.252,7.033-2.99,9.677"/>
		<path fill="none" stroke="#00AD9F" stroke-linecap="round" stroke-linejoin="round" stroke-miterlimit="10" d="M294.369,91.71
			c3.992-2.045,9.329-2.514,15.038-1.082"/>
	</g>
	<path fill="#4A49CA" d="M71.708,109.812c1.064-0.057,8.318-5.431,11.112-7.24c0.786-0.51,1.584-1.044,2.133-1.803
		c0.549-0.76,0.805-1.8,0.406-2.646c-0.496-1.051-1.319-2.101-3.395-2.097c-3.614,0.008-4.869,1.195-6.626,3.013
		C69.527,105.047,71.708,109.812,71.708,109.812z"/>
	<path fill="#4A49CA" d="M104.232,131.484c3.158,1.419,6.533,2.834,9.969,2.395c1.333-0.17,2.787-0.775,3.23-2.043
		c0.379-1.083-0.145-2.324-1.002-3.086c-0.859-0.761-1.992-1.129-3.107-1.4c-4.205-1.026-10.107-0.458-14.271,0.724
		C99.05,128.071,102.347,130.637,104.232,131.484z"/>
	<path fill="#4A49CA" d="M125.036,84.83c-1.409-0.89-2.965-2.08-2.964-3.746c0.001-1.671,1.744-2.943,3.415-2.953
		c1.671-0.008,3.222,0.903,4.478,2.006c5.315,4.665,4.652,9.985,4.652,9.985S126.605,85.821,125.036,84.83z"/>
	<path fill="#4A49CA" d="M129.226,70.598c-1.236-0.531-2.513-1.173-3.237-2.307c-0.353-0.552-0.554-1.25-0.335-1.868
		c0.363-1.033,1.012-1.962,3.617-1.489c8.25,1.497,10.047,7.146,10.047,7.146S131.417,71.539,129.226,70.598z"/>
	<path fill="#4A49CA" d="M153.396,83.095c3.311-0.285,6.728-1.935,8.813-4.52c0.788-0.976,1.509-2.052,1.771-3.278
		c0.263-1.226-0.017-2.632-0.967-3.45c-1.158-0.998-2.996-0.839-4.271,0.004c-1.275,0.842-2.096,2.216-2.76,3.593
		C155.097,77.28,153.396,83.095,153.396,83.095z"/>
	<path fill="none" stroke="#0B43A4" stroke-linecap="round" stroke-linejoin="round" stroke-miterlimit="10" d="M94.308,203.756
		c-8.013-7.063-16.024-14.126-24.038-21.189c-4.271-3.766-8.63-7.639-11.335-12.648c-5.814-10.768-2.462-24.759,5.39-34.145
		s19.353-14.929,30.906-18.962c11.554-4.034,23.58-6.864,34.593-12.198c6.907-3.346,13.853-8.33,15.746-15.767
		c1.14-4.475,0.182-9.437-2.541-13.164c-2.724-3.729-7.159-6.149-11.767-6.425"/>
	<path fill="none" stroke="#0B43A4" stroke-linecap="round" stroke-linejoin="round" stroke-miterlimit="10" d="M158.995,75.414
		c-2.188,6.724-10.717,10.813-14.608,16.637"/>
	<path fill="none" stroke="#0B43A4" stroke-linecap="round" stroke-linejoin="round" stroke-miterlimit="10" d="M128.375,83.146
		c1.679,1.772,3.69,3.238,5.156,5.191c3.096,4.128,3.354,10.836-1.226,14.997"/>
	<path fill="none" stroke="#0B43A4" stroke-linecap="round" stroke-linejoin="round" stroke-miterlimit="10" d="M85.228,120.783
		c7.069,5.447,16.362,9.078,25.28,9.424"/>
	<path fill="none" stroke="#0B43A4" stroke-linecap="round" stroke-linejoin="round" stroke-miterlimit="10" d="M69.044,130.706
		c-3.255-9.598,0.292-21.096,8.388-27.192"/>
	<path fill="#4A49CA" d="M327.458,90.151c-0.384-1.188-0.363-2.647,0.514-3.535c0.696-0.704,1.864-1.019,2.771-0.621
		c7.029,3.091,6.27,14.059,6.27,14.059S330.345,99.088,327.458,90.151z"/>
	<path fill="#4A49CA" d="M327.287,110.692c-4.547,8.218,11.615,7.591,17.442,2.751C344.729,113.444,331.202,103.618,327.287,110.692
		z"/>
	<path fill="#4A49CA" d="M347.722,90.773c-1.097-1.504-1.484-3.744-0.291-5.172c0.891-1.063,2.438-1.392,3.801-1.129
		c1.361,0.262,3.4,1.521,4.271,2.603c5.318,6.617,2.818,13.092,2.818,13.092S349.519,93.237,347.722,90.773z"/>
	<path fill="#4A49CA" d="M411.906,111.123c-0.395-1.28-0.301-2.842,0.694-3.738c0.628-0.565,1.521-0.771,2.362-0.706
		c0.846,0.063,1.648,0.369,2.418,0.722c1.648,0.754,2.933,2.07,3.724,3.7c1.999,4.117,0.642,9.214,0.642,9.214
		S412.885,114.312,411.906,111.123z"/>
	<path fill="#4A49CA" d="M391.716,126.204c-2.854-2.51-7.231-3.252-10.716-1.725c-0.886,0.388-1.728,0.937-2.293,1.72
		c-1.276,1.766-0.829,4.347,0.496,6.077c1.324,1.729,3.333,2.782,5.317,3.683c3.597,1.632,9.179,1.959,13.007,2.937
		C397.527,138.894,397.512,131.292,391.716,126.204z"/>
	<path fill="none" stroke="#0B43A4" stroke-linecap="round" stroke-linejoin="round" stroke-miterlimit="10" d="M332.495,91.914
		c2.378,7.783,9.107,13.656,16.6,16.833s15.746,4.016,23.866,4.541c8.121,0.525,16.339,0.787,24.192,2.919
		c7.654,2.078,15.274,6.405,18.562,13.624c3.997,8.786,0.457,19.293-5.153,27.146c-5.613,7.853-13.174,14.183-18.604,22.164
		c-2.494,3.665-4.576,7.955-4.072,12.358c0.674,5.871,5.618,10.194,10.217,13.908"/>
	<path fill="none" stroke="#0B43A4" stroke-linecap="round" stroke-linejoin="round" stroke-miterlimit="10" d="M351.216,89.059
		c5.381,5.954,9.684,15.265,10.729,23.222"/>
	<path fill="none" stroke="#0B43A4" stroke-linecap="round" stroke-linejoin="round" stroke-miterlimit="10" d="M333.118,112.055
		c3.077,0.816,6.195,1.639,9.379,1.646s6.872-1.755,9.161-3.968"/>
	<path fill="none" stroke="#0B43A4" stroke-linecap="round" stroke-linejoin="round" stroke-miterlimit="10" d="M417.172,111.606
		c2.883,2.784,4.636,6.707,4.785,10.712c0.15,4.005-2.072,8.858-4.738,11.851"/>
	<path fill="none" stroke="#0B43A4" stroke-linecap="round" stroke-linejoin="round" stroke-miterlimit="10" d="M387.007,129.783
		c5.758,5.301,10.771,9.587,17.173,14.09c2.924,2.056,8.726,4.689,11.301,4.011"/>
	<path opacity="0.2" fill="#5275A0" enable-background="new    " d="M453.961,250.219c-1.52,0.869-3.12,1.629-4.729,2.313
		c-6.263,2.629-12.99,4.117-19.771,4.379c-9.88,0.371-20.04-1.813-29.52,1.01c-4.353,1.291-8.36,3.643-11.65,6.75
		c-0.33,0.16-0.659,0.34-0.989,0.531c-0.791-6.689,15.892-15.41,20.959-17.684c9.15-4.1,19.353-5.92,29.353-5.119
		c4.38,0.352,8.87,1.211,12.479,3.699C451.642,247.168,453.001,248.598,453.961,250.219z"/>
	<path fill="#52D2BC" d="M437.61,246.396c4.378,0.35,8.867,1.209,12.481,3.701c3.616,2.488,6.159,6.938,5.315,11.25
		c-0.981,5.02-6.172,8.283-11.249,8.9s-10.15-0.777-15.16-1.813c-11.086-2.281-22.531-2.807-33.779-1.545
		c-2.805,0.314-5.467,0.871-7.924,2.309c-0.788-6.695,15.898-15.41,20.969-17.686C417.413,247.42,427.611,245.6,437.61,246.396z"/>
	<path fill="none" stroke="#00AD9F" stroke-linecap="round" stroke-linejoin="round" stroke-miterlimit="10" d="M391.64,264.98
		c8.283-7.281,29.549-12.225,44.587-10.631c4.528,0.479,9.1,1.832,12.582,4.77"/>
	
		<path fill="none" stroke="#0B43A4" stroke-linecap="round" stroke-linejoin="round" stroke-miterlimit="10" stroke-dasharray="4" d="
		M376.165,183.183l80.886-0.167c9.491-0.021,17.202,7.658,17.224,17.15l0,0c0.02,9.492-7.659,17.203-17.151,17.222l-55.328,0.113"/>
	
		<path fill="none" stroke="#0B43A4" stroke-linecap="round" stroke-linejoin="round" stroke-miterlimit="10" stroke-dasharray="4" d="
		M131.421,242.572l-56.567,0.115c-5.357,0.012-9.692,4.363-9.681,9.721l0,0c0.011,5.359,4.363,9.693,9.721,9.682l16.494-0.033"/>
	
		<path fill="none" stroke="#C8DBFB" stroke-linecap="round" stroke-linejoin="round" stroke-miterlimit="10" stroke-dasharray="4" d="
		M41.135,286.379c-19.378,0.039-19.783,28.945,4.875,28.896c24.658-0.052,348.126-0.72,363.382-0.75
		c15.253-0.032,16.861-23.831-1.994-23.792c-37.525,0.078-38.771-17.818-17.938-17.861"/>
	<circle fill="#5193F4" cx="40.949" cy="286.379" r="4.789"/>
	<circle fill="#0B43A4" cx="394.031" cy="273.805" r="4.789"/>
	<path opacity="0.2" fill="#5275A0" enable-background="new    " d="M403.969,356.571l-300.888,0.621
		c-4.015,0.01-7.274-3.239-7.284-7.255l-0.412-199.333c-0.008-4.015,3.239-7.275,7.254-7.284l300.889-0.621
		c4.014-0.008,7.273,3.239,7.283,7.254l0.409,199.333C411.23,353.301,407.982,356.563,403.969,356.571z"/>
	<path fill="#FFFFFF" d="M398.076,352.762l-300.889,0.621c-4.014,0.008-7.274-3.237-7.283-7.254l-0.412-199.333
		c-0.008-4.014,3.238-7.274,7.254-7.283l300.888-0.621c4.017-0.009,7.275,3.238,7.284,7.253l0.411,199.332
		C405.338,349.492,402.091,352.754,398.076,352.762z"/>
	<path fill="#3A5796" d="M397.146,138.895l-299.603,0.618c-4.369,0.009-7.904,3.559-7.896,7.929l0.015,6.88l315.426-0.651
		l-0.015-6.88C405.065,142.42,401.515,138.886,397.146,138.895z"/>
	<path fill="#C8DBFB" d="M97.905,353.383l45.269-0.094l-0.412-199.077l-53.18,0.109l0.395,191.174
		C89.986,349.861,93.536,353.393,97.905,353.383z"/>
	<path fill="#3A5796" d="M397.724,140.894c2.898,0,5.264,2.358,5.27,5.258l0.411,199.333c0.003,1.405-0.542,2.729-1.535,3.729
		s-2.315,1.549-3.723,1.551l-300.899,0.621c-2.898,0-5.263-2.356-5.27-5.258l-0.41-199.333c-0.006-2.904,2.353-5.273,5.257-5.279
		l300.884-0.621H397.724 M397.724,138.894c-0.005,0-0.011,0-0.016,0L96.82,139.515c-4.014,0.008-7.262,3.27-7.254,7.283
		l0.412,199.333c0.008,4.01,3.262,7.254,7.269,7.254c0.005,0,0.011,0,0.015,0l300.889-0.621c4.015-0.008,7.263-3.27,7.254-7.282
		l-0.411-199.333C404.983,142.138,401.731,138.894,397.724,138.894L397.724,138.894z"/>
	<path fill="#FFFFFF" d="M135.538,338.166l-34.886,0.072c-1.539,0.002-2.79-1.242-2.792-2.781l-0.001-0.346
		c-0.004-1.539,1.242-2.789,2.781-2.793l34.886-0.072c1.538-0.002,2.788,1.242,2.792,2.781v0.346
		C138.323,336.912,137.078,338.162,135.538,338.166z"/>
	<path fill="#FFFFFF" d="M131.343,203.108l-29.701,0.062c-2.819,0.006-5.11-2.275-5.116-5.096l-0.063-29.701
		c-0.006-2.819,2.276-5.11,5.096-5.117l29.701-0.062c2.82-0.006,5.111,2.276,5.117,5.096l0.063,29.701
		C136.445,200.812,134.163,203.103,131.343,203.108z"/>
	<path fill="#C8DBFB" d="M258.533,292.078l-103.478,0.215c-2.011,0.004-3.645-1.623-3.647-3.633l-0.001-0.451
		c-0.004-2.01,1.622-3.643,3.632-3.648l103.477-0.213c2.014-0.004,3.646,1.623,3.648,3.633v0.451
		C262.17,290.441,260.543,292.074,258.533,292.078z"/>
	<path fill="#C8DBFB" d="M252.513,174.181l-81.773,0.168c-2.01,0.004-3.643-1.622-3.646-3.633l-0.002-0.45
		c-0.004-2.011,1.622-3.644,3.633-3.647l81.774-0.168c2.011-0.004,3.644,1.622,3.646,3.632l0.002,0.451
		C256.149,172.543,254.522,174.176,252.513,174.181z"/>
	<path fill="#C8DBFB" d="M258.533,308.125l-103.478,0.213c-2.011,0.004-3.644-1.623-3.647-3.633l-0.001-0.451
		c-0.004-2.01,1.621-3.645,3.632-3.646l103.479-0.215c2.01-0.004,3.645,1.623,3.646,3.633v0.451
		C262.17,306.486,260.543,308.121,258.533,308.125z"/>
	<path fill="#C8DBFB" d="M258.533,324.169l-103.478,0.213c-2.01,0.004-3.645-1.621-3.646-3.631l-0.002-0.451
		c-0.004-2.012,1.623-3.645,3.633-3.647l103.478-0.213c2.012-0.005,3.645,1.62,3.646,3.634v0.45
		C262.172,322.532,260.545,324.165,258.533,324.169z"/>
	<path fill="#C8DBFB" d="M258.533,340.215l-103.478,0.213c-2.01,0.004-3.645-1.621-3.646-3.631l-0.002-0.451
		c-0.004-2.012,1.623-3.645,3.633-3.647l103.478-0.213c2.012-0.005,3.645,1.62,3.646,3.634v0.45
		C262.172,338.578,260.545,340.211,258.533,340.215z"/>
	<circle fill="#C8DBFB" cx="104.4" cy="146.766" r="2.549"/>
	<circle fill="#C8DBFB" cx="115.191" cy="146.743" r="2.549"/>
	<circle fill="#C8DBFB" cx="125.984" cy="146.721" r="2.549"/>
	<circle fill="#C8DBFB" cx="155.757" cy="170.515" r="7.371"/>
	<g>
		<path fill="#C8DBFB" d="M388.484,205.042l-81.773,0.168c-2.01,0.004-3.643-1.622-3.646-3.633l-0.002-0.45
			c-0.004-2.011,1.623-3.644,3.633-3.647l81.774-0.168c2.011-0.004,3.644,1.622,3.646,3.632l0.002,0.451
			C392.121,203.404,390.494,205.037,388.484,205.042z"/>
		<circle fill="#C8DBFB" cx="291.729" cy="201.375" r="7.371"/>
	</g>
	<g>
		<path fill="#C8DBFB" d="M388.484,227.341l-81.773,0.168c-2.01,0.004-3.643-1.622-3.646-3.633l-0.002-0.45
			c-0.004-2.011,1.623-3.644,3.633-3.647l81.774-0.168c2.011-0.004,3.644,1.622,3.646,3.632l0.002,0.451
			C392.121,225.703,390.494,227.336,388.484,227.341z"/>
		<circle fill="#C8DBFB" cx="291.729" cy="223.675" r="7.371"/>
	</g>
	<g>
		<path fill="#C8DBFB" d="M388.49,249.64l-81.773,0.168c-2.01,0.004-3.643-1.622-3.646-3.633l-0.002-0.45
			c-0.004-2.011,1.622-3.644,3.633-3.647l81.773-0.168c2.012-0.004,3.645,1.622,3.646,3.632l0.002,0.451
			C392.127,248.002,390.5,249.635,388.49,249.64z"/>
		<circle fill="#C8DBFB" cx="291.734" cy="245.974" r="7.371"/>
	</g>
	<path fill="#FFFFFF" d="M133.414,209.337l-32.646,0.067c-0.76,0.001-1.375-0.612-1.377-1.371v-0.17
		c0-0.758,0.612-1.375,1.371-1.376l32.648-0.067c0.759-0.002,1.375,0.612,1.376,1.371v0.17
		C134.787,208.72,134.173,209.335,133.414,209.337z"/>
	<path fill="#FFFFFF" d="M133.427,215.571l-32.648,0.067c-0.76,0-1.375-0.613-1.376-1.371v-0.17c-0.002-0.76,0.612-1.375,1.37-1.376
		l32.647-0.067c0.759-0.001,1.375,0.612,1.376,1.371v0.17C134.798,214.953,134.185,215.568,133.427,215.571z"/>
	<g>
		<rect x="99.632" y="174.447" fill="#BCD3F5" width="33.491" height="22.328"/>
		<path fill="#BCD3F5" d="M118.782,178.211h-5.013c-2.378,0-4.313-1.934-4.313-4.311c0-2.378,1.935-4.313,4.313-4.313h5.013
			c2.378,0,4.313,1.935,4.313,4.313C123.095,176.278,121.161,178.211,118.782,178.211z M113.769,171.257
			c-1.458,0-2.644,1.186-2.644,2.644c0,1.457,1.186,2.642,2.644,2.642h5.013c1.458,0,2.643-1.185,2.643-2.642
			c0-1.458-1.185-2.644-2.643-2.644H113.769z"/>
		<circle fill="#FF7B2E" cx="116.136" cy="185.715" r="4.797"/>
		<g>
			<rect x="115.144" y="182.784" fill="#FFFFFF" width="1.985" height="5.861"/>
			<rect x="113.258" y="184.722" fill="#FFFFFF" width="5.86" height="1.984"/>
		</g>
	</g>
	<g>
		<rect x="153.621" y="193.882" fill="#F1F2F2" width="93.847" height="64.921"/>
		<g opacity="0.4">
			<g>
				<g>
					<path fill="#462754" d="M196.473,199.49c0.902,0.748,1.563,1.748,2.072,2.801c0.509,1.059,0.845,2.19,1.111,3.33
						c0.264,1.143,0.432,2.305,0.54,3.47c0.106,1.166,0.174,2.334,0.14,3.51v0.003c-0.001,0.054-0.032,0.103-0.076,0.127
						c-0.851,0.49-1.736,0.885-2.649,1.225c-0.91,0.336-1.854,0.604-2.822,0.725c-0.963,0.121-1.952,0.156-2.909-0.054
						c-0.953-0.217-1.84-0.66-2.579-1.282c0.772,0.585,1.667,0.973,2.606,1.14c0.943,0.162,1.906,0.109,2.847-0.037
						c0.942-0.152,1.861-0.432,2.756-0.765c0.891-0.341,1.77-0.743,2.584-1.224l-0.076,0.132c0.014-2.31-0.143-4.645-0.624-6.911
						c-0.232-1.135-0.531-2.261-1.004-3.317C197.931,201.304,197.338,200.282,196.473,199.49z"/>
				</g>
				<g>
					<path fill="#462754" d="M211.054,211.846c0.887,0.768,1.518,1.777,2.006,2.83c0.497,1.059,0.817,2.188,1.072,3.324
						c0.263,1.138,0.438,2.292,0.552,3.454s0.18,2.328,0.167,3.5c0,0.033-0.018,0.062-0.044,0.078
						c-1.856,1.061-3.886,1.878-6.04,2.104c-1.069,0.1-2.183,0.063-3.218-0.311c-1.037-0.364-1.942-1.051-2.621-1.898
						c-1.339-1.737-1.948-3.862-2.356-5.951c-0.363-2.109-0.523-4.247-0.466-6.383c0-0.025,0.015-0.048,0.035-0.059
						c0.845-0.481,1.73-0.871,2.639-1.203c0.908-0.327,1.843-0.59,2.8-0.726c0.955-0.131,1.933-0.171,2.883,0.019
						C209.411,210.821,210.301,211.239,211.054,211.846z M211.054,211.846c-0.758-0.602-1.649-1.011-2.595-1.201
						c-0.949-0.181-1.923-0.134-2.872,0.004c-0.953,0.138-1.88,0.422-2.778,0.764c-0.895,0.347-1.772,0.753-2.595,1.244l0.035-0.06
						c-0.015,2.122,0.185,4.25,0.583,6.329c0.433,2.059,1.049,4.15,2.348,5.799c0.66,0.8,1.496,1.451,2.475,1.804
						c0.975,0.364,2.046,0.408,3.085,0.318c2.089-0.213,4.125-0.957,5.969-1.976l-0.044,0.078c0.035-1.159-0.009-2.326-0.101-3.483
						c-0.09-1.159-0.244-2.316-0.483-3.455c-0.245-1.136-0.558-2.266-1.044-3.324C212.557,213.633,211.934,212.62,211.054,211.846z"
						/>
				</g>
				<g>
					<path fill="#462754" d="M206.709,226.943c0.467-1.053,0.968-2.089,1.475-3.122c0.505-1.034,1.035-2.056,1.552-3.083
						c0.541-1.016,1.068-2.038,1.62-3.048c0.554-1.009,1.11-2.016,1.7-3.006c-0.467,1.053-0.968,2.089-1.475,3.122
						c-0.505,1.033-1.036,2.056-1.553,3.083c-0.541,1.016-1.068,2.039-1.62,3.047C207.854,224.946,207.297,225.953,206.709,226.943z
						"/>
				</g>
				<g>
					<path fill="#462754" d="M203.881,225.701c0.534-1.18,1.1-2.343,1.671-3.504l1.75-3.464l1.818-3.43
						c0.618-1.136,1.241-2.27,1.898-3.387c-0.535,1.181-1.101,2.344-1.672,3.505l-1.75,3.462l-1.819,3.43
						C205.16,223.449,204.536,224.584,203.881,225.701z"/>
				</g>
				<g>
					<path fill="#462754" d="M201.866,222.841c0.469-1.053,0.97-2.089,1.476-3.122c0.505-1.035,1.035-2.057,1.552-3.084
						c0.541-1.016,1.068-2.038,1.621-3.048c0.552-1.01,1.109-2.017,1.699-3.005c-0.467,1.052-0.97,2.088-1.473,3.122
						c-0.508,1.033-1.038,2.056-1.554,3.084c-0.542,1.016-1.068,2.037-1.621,3.046C203.012,220.843,202.455,221.851,201.866,222.841
						z"/>
				</g>
				<g>
					<path fill="#462754" d="M225.635,224.202c0.887,0.768,1.518,1.777,2.006,2.831c0.497,1.058,0.817,2.188,1.073,3.323
						c0.262,1.138,0.438,2.294,0.551,3.456c0.112,1.16,0.18,2.327,0.167,3.498c0,0.033-0.018,0.063-0.044,0.078
						c-1.856,1.061-3.886,1.88-6.04,2.105c-1.069,0.1-2.183,0.063-3.218-0.313c-1.038-0.363-1.942-1.049-2.622-1.899
						c-1.339-1.736-1.946-3.863-2.357-5.95c-0.361-2.109-0.521-4.246-0.465-6.383c0-0.023,0.015-0.047,0.035-0.059
						c0.845-0.481,1.732-0.871,2.638-1.203c0.911-0.327,1.844-0.59,2.802-0.726c0.955-0.131,1.933-0.171,2.883,0.019
						C223.992,223.177,224.881,223.595,225.635,224.202z M225.635,224.202c-0.758-0.601-1.649-1.012-2.594-1.201
						c-0.95-0.181-1.924-0.133-2.873,0.004c-0.953,0.138-1.88,0.422-2.778,0.764c-0.895,0.348-1.772,0.754-2.595,1.244l0.035-0.059
						c-0.016,2.121,0.185,4.249,0.583,6.328c0.433,2.059,1.047,4.15,2.348,5.799c0.66,0.8,1.494,1.451,2.474,1.804
						c0.975,0.364,2.047,0.408,3.086,0.318c2.089-0.211,4.125-0.957,5.971-1.976l-0.046,0.078c0.035-1.158-0.01-2.324-0.101-3.483
						c-0.09-1.159-0.243-2.314-0.482-3.455c-0.245-1.136-0.558-2.264-1.044-3.322C227.137,225.989,226.516,224.977,225.635,224.202z
						"/>
				</g>
				<g>
					<path fill="#462754" d="M221.29,239.3c0.467-1.053,0.968-2.089,1.473-3.122c0.505-1.034,1.038-2.056,1.554-3.083
						c0.541-1.016,1.069-2.038,1.621-3.048c0.552-1.009,1.109-2.018,1.699-3.006c-0.467,1.054-0.968,2.089-1.473,3.123
						c-0.506,1.033-1.036,2.056-1.554,3.082c-0.541,1.016-1.068,2.039-1.621,3.048C222.437,237.304,221.879,238.31,221.29,239.3z"/>
				</g>
				<g>
					<path fill="#462754" d="M218.462,238.058c0.534-1.18,1.1-2.343,1.673-3.504l1.75-3.464l1.816-3.428
						c0.618-1.138,1.242-2.271,1.896-3.389c-0.533,1.181-1.1,2.344-1.671,3.505l-1.75,3.462l-1.819,3.43
						C219.739,235.808,219.117,236.94,218.462,238.058z"/>
				</g>
				<g>
					<path fill="#462754" d="M216.447,235.197c0.47-1.053,0.97-2.089,1.475-3.122c0.506-1.035,1.038-2.056,1.553-3.084
						c0.54-1.016,1.068-2.038,1.62-3.048c0.553-1.01,1.111-2.017,1.7-3.006c-0.468,1.053-0.968,2.089-1.473,3.124
						c-0.506,1.033-1.036,2.054-1.555,3.082c-0.541,1.016-1.068,2.039-1.62,3.048C217.595,233.201,217.037,234.207,216.447,235.197z
						"/>
				</g>
				<g>
					<path fill="#462754" d="M233.043,250.414c-0.902-0.749-1.562-1.748-2.072-2.801c-0.509-1.059-0.845-2.191-1.112-3.33
						c-0.263-1.143-0.43-2.305-0.54-3.47c-0.105-1.166-0.173-2.334-0.138-3.511V237.3c0.001-0.056,0.032-0.103,0.076-0.127
						c0.851-0.49,1.736-0.886,2.649-1.225c0.912-0.336,1.854-0.604,2.821-0.725c0.964-0.121,1.954-0.156,2.911,0.053
						c0.952,0.218,1.84,0.659,2.579,1.282c-0.771-0.585-1.667-0.973-2.606-1.139c-0.942-0.162-1.908-0.11-2.846,0.037
						c-0.943,0.152-1.862,0.434-2.757,0.766c-0.891,0.339-1.769,0.742-2.584,1.223l0.076-0.132c-0.014,2.31,0.143,4.646,0.624,6.912
						c0.232,1.133,0.531,2.26,1.004,3.317C231.585,248.6,232.177,249.622,233.043,250.414z"/>
				</g>
			</g>
			<g>
				<g>
					<path fill="none" stroke="#007A9C" stroke-width="0.5669" stroke-miterlimit="10" d="M196.473,199.49
						c4.027,3.411,3.703,13.105,3.703,13.105s-6.851,4.162-10.876,0.749"/>
					<path fill="none" stroke="#007A9C" stroke-width="0.5669" stroke-miterlimit="10" d="M196.473,199.49
						c0.902,0.748,1.563,1.748,2.072,2.801c0.509,1.059,0.845,2.19,1.111,3.33c0.264,1.143,0.432,2.305,0.54,3.47
						c0.106,1.166,0.174,2.334,0.14,3.51v0.003c-0.001,0.054-0.032,0.103-0.076,0.127c-0.851,0.49-1.736,0.885-2.649,1.225
						c-0.91,0.336-1.854,0.604-2.822,0.725c-0.963,0.121-1.952,0.156-2.909-0.054c-0.953-0.217-1.84-0.66-2.579-1.282
						c0.772,0.585,1.667,0.973,2.606,1.14c0.943,0.162,1.906,0.109,2.847-0.037c0.942-0.152,1.861-0.432,2.756-0.765
						c0.891-0.341,1.77-0.743,2.584-1.224l-0.076,0.132c0.014-2.31-0.143-4.645-0.624-6.911c-0.232-1.135-0.531-2.261-1.004-3.317
						C197.931,201.304,197.338,200.282,196.473,199.49z"/>
				</g>
				<g>
					<path fill="none" stroke="#007A9C" stroke-width="0.5669" stroke-miterlimit="10" d="M211.054,211.846
						c4.025,3.411,3.705,13.106,3.705,13.106s-6.852,4.161-10.877,0.749c-4.027-3.412-3.705-13.106-3.705-13.106
						S207.028,208.433,211.054,211.846z"/>
					<path fill="none" stroke="#007A9C" stroke-width="0.5669" stroke-miterlimit="10" d="M211.054,211.846
						c0.887,0.768,1.518,1.777,2.006,2.83c0.497,1.059,0.817,2.188,1.072,3.324c0.263,1.138,0.438,2.292,0.552,3.454
						s0.18,2.328,0.167,3.5c0,0.033-0.018,0.062-0.044,0.078c-1.856,1.061-3.886,1.878-6.04,2.104
						c-1.069,0.1-2.183,0.063-3.218-0.311c-1.037-0.364-1.942-1.051-2.621-1.898c-1.339-1.737-1.948-3.862-2.356-5.951
						c-0.363-2.109-0.523-4.247-0.466-6.383c0-0.025,0.015-0.048,0.035-0.059c0.845-0.481,1.73-0.871,2.639-1.203
						c0.908-0.327,1.843-0.59,2.8-0.726c0.955-0.131,1.933-0.171,2.883,0.019C209.411,210.821,210.301,211.239,211.054,211.846z
						 M211.054,211.846c-0.758-0.602-1.649-1.011-2.595-1.201c-0.949-0.181-1.923-0.134-2.872,0.004
						c-0.953,0.138-1.88,0.422-2.778,0.764c-0.895,0.347-1.772,0.753-2.595,1.244l0.035-0.06c-0.015,2.122,0.185,4.25,0.583,6.329
						c0.433,2.059,1.049,4.15,2.348,5.799c0.66,0.8,1.496,1.451,2.475,1.804c0.975,0.364,2.046,0.408,3.085,0.318
						c2.089-0.213,4.125-0.957,5.969-1.976l-0.044,0.078c0.035-1.159-0.009-2.326-0.101-3.483c-0.09-1.159-0.244-2.316-0.483-3.455
						c-0.245-1.136-0.558-2.266-1.044-3.324C212.557,213.633,211.934,212.62,211.054,211.846z"/>
				</g>
				<g>
					
						<line fill="none" stroke="#007A9C" stroke-width="0.5669" stroke-miterlimit="10" x1="206.709" y1="226.943" x2="213.056" y2="214.685"/>
					<path fill="none" stroke="#007A9C" stroke-width="0.5669" stroke-miterlimit="10" d="M206.709,226.943
						c0.467-1.053,0.968-2.089,1.475-3.122c0.505-1.034,1.035-2.056,1.552-3.083c0.541-1.016,1.068-2.038,1.62-3.048
						c0.554-1.009,1.11-2.016,1.7-3.006c-0.467,1.053-0.968,2.089-1.475,3.122c-0.505,1.033-1.036,2.056-1.553,3.083
						c-0.541,1.016-1.068,2.039-1.62,3.047C207.854,224.946,207.297,225.953,206.709,226.943z"/>
				</g>
				<g>
					
						<line fill="none" stroke="#007A9C" stroke-width="0.5669" stroke-miterlimit="10" x1="203.881" y1="225.701" x2="211.018" y2="211.917"/>
					<path fill="none" stroke="#007A9C" stroke-width="0.5669" stroke-miterlimit="10" d="M203.881,225.701
						c0.534-1.18,1.1-2.343,1.671-3.504l1.75-3.464l1.818-3.43c0.618-1.136,1.241-2.27,1.898-3.387
						c-0.535,1.181-1.101,2.344-1.672,3.505l-1.75,3.462l-1.819,3.43C205.16,223.449,204.536,224.584,203.881,225.701z"/>
				</g>
				<g>
					
						<line fill="none" stroke="#007A9C" stroke-width="0.5669" stroke-miterlimit="10" x1="201.866" y1="222.841" x2="208.214" y2="210.582"/>
					<path fill="none" stroke="#007A9C" stroke-width="0.5669" stroke-miterlimit="10" d="M201.866,222.841
						c0.469-1.053,0.97-2.089,1.476-3.122c0.505-1.035,1.035-2.057,1.552-3.084c0.541-1.016,1.068-2.038,1.621-3.048
						c0.552-1.01,1.109-2.017,1.699-3.005c-0.467,1.052-0.97,2.088-1.473,3.122c-0.508,1.033-1.038,2.056-1.554,3.084
						c-0.542,1.016-1.068,2.037-1.621,3.046C203.012,220.843,202.455,221.851,201.866,222.841z"/>
				</g>
				<g>
					<path fill="none" stroke="#007A9C" stroke-width="0.5669" stroke-miterlimit="10" d="M225.635,224.202
						c4.027,3.412,3.703,13.106,3.703,13.106s-6.851,4.162-10.876,0.749c-4.025-3.411-3.703-13.105-3.703-13.105
						S221.609,220.789,225.635,224.202z"/>
					<path fill="none" stroke="#007A9C" stroke-width="0.5669" stroke-miterlimit="10" d="M225.635,224.202
						c0.887,0.768,1.518,1.777,2.006,2.831c0.497,1.058,0.817,2.188,1.073,3.323c0.262,1.138,0.438,2.294,0.551,3.456
						c0.112,1.16,0.18,2.327,0.167,3.498c0,0.033-0.018,0.063-0.044,0.078c-1.856,1.061-3.886,1.88-6.04,2.105
						c-1.069,0.1-2.183,0.063-3.218-0.313c-1.038-0.363-1.942-1.049-2.622-1.899c-1.339-1.736-1.946-3.863-2.357-5.95
						c-0.361-2.109-0.521-4.246-0.465-6.383c0-0.023,0.015-0.047,0.035-0.059c0.845-0.481,1.732-0.871,2.638-1.203
						c0.911-0.327,1.844-0.59,2.802-0.726c0.955-0.131,1.933-0.171,2.883,0.019C223.992,223.177,224.881,223.595,225.635,224.202z
						 M225.635,224.202c-0.758-0.601-1.649-1.012-2.594-1.201c-0.95-0.181-1.924-0.133-2.873,0.004
						c-0.953,0.138-1.88,0.422-2.778,0.764c-0.895,0.348-1.772,0.754-2.595,1.244l0.035-0.059c-0.016,2.121,0.185,4.249,0.583,6.328
						c0.433,2.059,1.047,4.15,2.348,5.799c0.66,0.8,1.494,1.451,2.474,1.804c0.975,0.364,2.047,0.408,3.086,0.318
						c2.089-0.211,4.125-0.957,5.971-1.976l-0.046,0.078c0.035-1.158-0.01-2.324-0.101-3.483c-0.09-1.159-0.243-2.314-0.482-3.455
						c-0.245-1.136-0.558-2.264-1.044-3.322C227.137,225.989,226.516,224.977,225.635,224.202z"/>
				</g>
				<g>
					
						<line fill="none" stroke="#007A9C" stroke-width="0.5669" stroke-miterlimit="10" x1="221.29" y1="239.3" x2="227.637" y2="227.041"/>
					<path fill="none" stroke="#007A9C" stroke-width="0.5669" stroke-miterlimit="10" d="M221.29,239.3
						c0.467-1.053,0.968-2.089,1.473-3.122c0.505-1.034,1.038-2.056,1.554-3.083c0.541-1.016,1.069-2.038,1.621-3.048
						c0.552-1.009,1.109-2.018,1.699-3.006c-0.467,1.054-0.968,2.089-1.473,3.123c-0.506,1.033-1.036,2.056-1.554,3.082
						c-0.541,1.016-1.068,2.039-1.621,3.048C222.437,237.304,221.879,238.31,221.29,239.3z"/>
				</g>
				<g>
					
						<line fill="none" stroke="#007A9C" stroke-width="0.5669" stroke-miterlimit="10" x1="218.462" y1="238.058" x2="225.598" y2="224.273"/>
					<path fill="none" stroke="#007A9C" stroke-width="0.5669" stroke-miterlimit="10" d="M218.462,238.058
						c0.534-1.18,1.1-2.343,1.673-3.504l1.75-3.464l1.816-3.428c0.618-1.138,1.242-2.271,1.896-3.389
						c-0.533,1.181-1.1,2.344-1.671,3.505l-1.75,3.462l-1.819,3.43C219.739,235.808,219.117,236.94,218.462,238.058z"/>
				</g>
				<g>
					
						<line fill="none" stroke="#007A9C" stroke-width="0.5669" stroke-miterlimit="10" x1="216.447" y1="235.197" x2="222.795" y2="222.938"/>
					<path fill="none" stroke="#007A9C" stroke-width="0.5669" stroke-miterlimit="10" d="M216.447,235.197
						c0.47-1.053,0.97-2.089,1.475-3.122c0.506-1.035,1.038-2.056,1.553-3.084c0.54-1.016,1.068-2.038,1.62-3.048
						c0.553-1.01,1.111-2.017,1.7-3.006c-0.468,1.053-0.968,2.089-1.473,3.124c-0.506,1.033-1.036,2.054-1.555,3.082
						c-0.541,1.016-1.068,2.039-1.62,3.048C217.595,233.201,217.037,234.207,216.447,235.197z"/>
				</g>
				<g>
					<path fill="none" stroke="#007A9C" stroke-width="0.5669" stroke-miterlimit="10" d="M233.043,250.414
						c-4.027-3.412-3.705-13.105-3.705-13.105s6.852-4.162,10.877-0.75"/>
					<path fill="none" stroke="#007A9C" stroke-width="0.5669" stroke-miterlimit="10" d="M233.043,250.414
						c-0.902-0.749-1.562-1.748-2.072-2.801c-0.509-1.059-0.845-2.191-1.112-3.33c-0.263-1.143-0.43-2.305-0.54-3.47
						c-0.105-1.166-0.173-2.334-0.138-3.511V237.3c0.001-0.056,0.032-0.103,0.076-0.127c0.851-0.49,1.736-0.886,2.649-1.225
						c0.912-0.336,1.854-0.604,2.821-0.725c0.964-0.121,1.954-0.156,2.911,0.053c0.952,0.218,1.84,0.659,2.579,1.282
						c-0.771-0.585-1.667-0.973-2.606-1.139c-0.942-0.162-1.908-0.11-2.846,0.037c-0.943,0.152-1.862,0.434-2.757,0.766
						c-0.891,0.339-1.769,0.742-2.584,1.223l0.076-0.132c-0.014,2.31,0.143,4.646,0.624,6.912c0.232,1.133,0.531,2.26,1.004,3.317
						C231.585,248.6,232.177,249.622,233.043,250.414z"/>
				</g>
			</g>
		</g>
		<rect x="153.621" y="191.239" fill="#462754" width="93.847" height="2.644"/>
		<g>
			<g opacity="0.4">
				<path fill="#462754" d="M234.821,198.167c-1.379,0.068-2.758,0.1-4.138,0.126l-4.139,0.039l-4.139-0.039
					c-1.379-0.026-2.758-0.058-4.139-0.126c1.381-0.068,2.76-0.101,4.139-0.127l4.139-0.039l4.139,0.039
					C232.063,198.066,233.441,198.098,234.821,198.167z"/>
			</g>
		</g>
		<g>
			<g opacity="0.4">
				<path fill="#462754" d="M234.821,200.164c-1.379,0.067-2.758,0.1-4.138,0.125l-4.139,0.039l-4.139-0.037
					c-1.379-0.026-2.758-0.06-4.139-0.127c1.381-0.069,2.76-0.102,4.139-0.128l4.139-0.037l4.139,0.039
					C232.063,200.062,233.441,200.095,234.821,200.164z"/>
			</g>
		</g>
		<g>
			<g opacity="0.4">
				<path fill="#462754" d="M234.821,202.16c-1.379,0.069-2.758,0.101-4.138,0.127l-4.139,0.039l-4.139-0.039
					c-1.379-0.026-2.758-0.058-4.139-0.127c1.381-0.068,2.76-0.1,4.139-0.126l4.139-0.037l4.139,0.037
					C232.063,202.06,233.441,202.091,234.821,202.16z"/>
			</g>
		</g>
		<g>
			<g opacity="0.4">
				<path fill="#462754" d="M234.821,204.157c-1.379,0.068-2.758,0.1-4.138,0.126l-4.139,0.039l-4.139-0.037
					c-1.379-0.026-2.758-0.059-4.139-0.128c1.381-0.069,2.76-0.1,4.139-0.127l4.139-0.037l4.139,0.038
					C232.063,204.057,233.441,204.089,234.821,204.157z"/>
			</g>
		</g>
		<g>
			<g opacity="0.4">
				<path fill="#462754" d="M234.821,206.155c-1.379,0.067-2.758,0.1-4.138,0.126l-4.139,0.038l-4.139-0.038
					c-1.379-0.026-2.758-0.059-4.139-0.126c1.381-0.069,2.76-0.102,4.139-0.128l4.139-0.038l4.139,0.038
					C232.063,206.053,233.441,206.085,234.821,206.155z"/>
			</g>
		</g>
		<g>
			<g opacity="0.4">
				<path fill="#462754" d="M234.821,208.151c-1.379,0.067-2.758,0.1-4.138,0.126l-4.139,0.039l-4.139-0.038
					c-1.379-0.026-2.758-0.058-4.139-0.127c1.381-0.067,2.76-0.1,4.139-0.127l4.139-0.038l4.139,0.039
					C232.063,208.051,233.441,208.083,234.821,208.151z"/>
			</g>
		</g>
		<g>
			<g opacity="0.4">
				<path fill="#462754" d="M183.632,244.286c-1.379,0.067-2.76,0.1-4.139,0.126l-4.139,0.038l-4.138-0.037
					c-1.379-0.027-2.76-0.058-4.139-0.127c1.379-0.069,2.76-0.1,4.139-0.127l4.138-0.039l4.139,0.039
					C180.873,244.187,182.253,244.217,183.632,244.286z"/>
			</g>
		</g>
		<g>
			<g opacity="0.4">
				<path fill="#462754" d="M183.632,246.282c-1.379,0.067-2.76,0.101-4.139,0.127l-4.139,0.038l-4.138-0.038
					c-1.379-0.026-2.76-0.058-4.139-0.127c1.379-0.067,2.76-0.1,4.139-0.126l4.138-0.039l4.139,0.039
					C180.873,246.183,182.253,246.215,183.632,246.282z"/>
			</g>
		</g>
		<g>
			<g opacity="0.4">
				<path fill="#462754" d="M183.632,248.28c-1.379,0.067-2.76,0.1-4.139,0.125l-4.139,0.039l-4.138-0.039
					c-1.379-0.024-2.76-0.057-4.139-0.125c1.379-0.069,2.76-0.102,4.139-0.128l4.138-0.037l4.139,0.039
					C180.873,248.181,182.253,248.212,183.632,248.28z"/>
			</g>
		</g>
		<g>
			<g opacity="0.4">
				<path fill="#462754" d="M183.632,250.277c-1.379,0.068-2.76,0.1-4.139,0.126l-4.139,0.039l-4.138-0.039
					c-1.379-0.026-2.76-0.058-4.139-0.126c1.379-0.069,2.76-0.101,4.139-0.129l4.138-0.037l4.139,0.039
					C180.873,250.177,182.253,250.208,183.632,250.277z"/>
			</g>
		</g>
		<g>
			<g opacity="0.4">
				<path fill="#462754" d="M183.632,252.273c-1.379,0.068-2.76,0.1-4.139,0.126l-4.139,0.039l-4.138-0.037
					c-1.379-0.028-2.76-0.06-4.139-0.128c1.379-0.067,2.76-0.1,4.139-0.127l4.138-0.037l4.139,0.037
					C180.873,252.174,182.253,252.206,183.632,252.273z"/>
			</g>
		</g>
		<g>
			<g opacity="0.4">
				<path fill="#462754" d="M183.632,254.27c-1.379,0.068-2.76,0.102-4.139,0.128l-4.139,0.037l-4.138-0.037
					c-1.379-0.026-2.76-0.059-4.139-0.128c1.379-0.067,2.76-0.1,4.139-0.125l4.138-0.039l4.139,0.039
					C180.873,254.17,182.253,254.202,183.632,254.27z"/>
			</g>
		</g>
		<g>
			<g opacity="0.4">
				<path fill="#462754" d="M183.632,198.167c-1.379,0.068-2.76,0.1-4.139,0.126l-4.139,0.039l-4.138-0.039
					c-1.379-0.026-2.76-0.058-4.139-0.126c1.379-0.068,2.76-0.101,4.139-0.127l4.138-0.039l4.139,0.039
					C180.873,198.066,182.253,198.098,183.632,198.167z"/>
			</g>
		</g>
		<g>
			<g opacity="0.4">
				<path fill="#462754" d="M183.632,200.164c-1.379,0.067-2.76,0.1-4.139,0.125l-4.139,0.039l-4.138-0.037
					c-1.379-0.026-2.76-0.06-4.139-0.127c1.379-0.069,2.76-0.102,4.139-0.128l4.138-0.037l4.139,0.039
					C180.873,200.062,182.253,200.095,183.632,200.164z"/>
			</g>
		</g>
		<g>
			<g opacity="0.4">
				<path fill="#462754" d="M183.632,202.16c-1.379,0.069-2.76,0.101-4.139,0.127l-4.139,0.039l-4.138-0.039
					c-1.379-0.026-2.76-0.058-4.139-0.127c1.379-0.068,2.76-0.1,4.139-0.126l4.138-0.037l4.139,0.037
					C180.873,202.06,182.253,202.091,183.632,202.16z"/>
			</g>
		</g>
		<g>
			<g opacity="0.4">
				<path fill="#462754" d="M183.632,204.157c-1.379,0.068-2.76,0.1-4.139,0.126l-4.139,0.039l-4.138-0.037
					c-1.379-0.026-2.76-0.059-4.139-0.128c1.379-0.069,2.76-0.1,4.139-0.127l4.138-0.037l4.139,0.038
					C180.873,204.057,182.253,204.089,183.632,204.157z"/>
			</g>
		</g>
		<g>
			<g opacity="0.4">
				<path fill="#462754" d="M183.632,206.155c-1.379,0.067-2.76,0.1-4.139,0.126l-4.139,0.038l-4.138-0.038
					c-1.379-0.026-2.76-0.059-4.139-0.126c1.379-0.069,2.76-0.102,4.139-0.128l4.138-0.038l4.139,0.038
					C180.873,206.053,182.253,206.085,183.632,206.155z"/>
			</g>
		</g>
		<g>
			<g opacity="0.4">
				<path fill="#462754" d="M183.632,208.151c-1.379,0.067-2.76,0.1-4.139,0.126l-4.139,0.039l-4.138-0.038
					c-1.379-0.026-2.76-0.058-4.139-0.127c1.379-0.067,2.76-0.1,4.139-0.127l4.138-0.038l4.139,0.039
					C180.873,208.051,182.253,208.083,183.632,208.151z"/>
			</g>
		</g>
		<g opacity="0.4">
			<polygon fill="none" stroke="#007A9C" stroke-width="0.5669" stroke-miterlimit="10" points="183.277,229.45 183.277,224.27 
				187.762,221.682 192.247,224.27 192.247,229.45 187.762,232.04 			"/>
			
				<line fill="none" stroke="#007A9C" stroke-width="0.5669" stroke-miterlimit="10" x1="185.041" y1="224.181" x2="186.802" y2="223.164"/>
			
				<line fill="none" stroke="#007A9C" stroke-width="0.5669" stroke-miterlimit="10" x1="186.802" y1="230.556" x2="185.041" y2="229.539"/>
			
				<line fill="none" stroke="#007A9C" stroke-width="0.5669" stroke-miterlimit="10" x1="191.442" y1="225.844" x2="191.442" y2="227.876"/>
			
				<line fill="none" stroke="#007A9C" stroke-width="0.5669" stroke-miterlimit="10" x1="190.483" y1="229.539" x2="188.722" y2="230.556"/>
			
				<line fill="none" stroke="#007A9C" stroke-width="0.5669" stroke-miterlimit="10" x1="184.081" y1="227.876" x2="184.081" y2="225.844"/>
			
				<line fill="none" stroke="#007A9C" stroke-width="0.5669" stroke-miterlimit="10" x1="188.722" y1="223.164" x2="190.483" y2="224.181"/>
			
				<line fill="none" stroke="#007A9C" stroke-width="0.5669" stroke-miterlimit="10" x1="171.501" y1="216.392" x2="173.261" y2="215.376"/>
			
				<line fill="none" stroke="#007A9C" stroke-width="0.5669" stroke-miterlimit="10" x1="173.261" y1="222.766" x2="171.501" y2="221.749"/>
			
				<line fill="none" stroke="#007A9C" stroke-width="0.5669" stroke-miterlimit="10" x1="177.901" y1="218.054" x2="177.901" y2="220.086"/>
			
				<line fill="none" stroke="#007A9C" stroke-width="0.5669" stroke-miterlimit="10" x1="176.941" y1="221.749" x2="175.181" y2="222.766"/>
			
				<line fill="none" stroke="#007A9C" stroke-width="0.5669" stroke-miterlimit="10" x1="170.54" y1="220.086" x2="170.54" y2="218.054"/>
			
				<line fill="none" stroke="#007A9C" stroke-width="0.5669" stroke-miterlimit="10" x1="175.181" y1="215.376" x2="176.941" y2="216.392"/>
			<polygon fill="none" stroke="#007A9C" stroke-width="0.5669" stroke-miterlimit="10" points="174.306,229.45 174.306,224.27 
				178.791,221.682 183.277,224.27 183.277,229.45 178.791,232.04 			"/>
			<polygon fill="none" stroke="#007A9C" stroke-width="0.5669" stroke-miterlimit="10" points="169.841,221.66 169.841,216.481 
				174.326,213.892 178.813,216.481 178.813,221.66 174.326,224.25 			"/>
			<polygon fill="none" stroke="#007A9C" stroke-width="0.5669" stroke-miterlimit="10" points="160.87,221.66 160.87,216.481 
				165.356,213.892 169.841,216.481 169.841,221.66 165.356,224.25 			"/>
			<circle fill="#007A9C" cx="187.72" cy="221.782" r="1.166"/>
			<circle fill="#007A9C" cx="187.72" cy="232.04" r="1.166"/>
			<circle fill="#007A9C" cx="192.248" cy="229.396" r="1.166"/>
			<circle fill="#007A9C" cx="192.248" cy="224.25" r="1.166"/>
			<circle fill="#007A9C" cx="178.748" cy="232.04" r="1.167"/>
			<circle fill="#007A9C" cx="178.748" cy="221.782" r="1.167"/>
			<circle fill="#007A9C" cx="174.221" cy="224.426" r="1.166"/>
			<circle fill="#007A9C" cx="174.221" cy="229.572" r="1.166"/>
			<circle fill="#007A9C" cx="165.356" cy="224.426" r="1.166"/>
			<circle fill="#007A9C" cx="169.788" cy="221.682" r="1.167"/>
			<circle fill="#007A9C" cx="165.356" cy="214.168" r="1.166"/>
			<circle fill="#007A9C" cx="174.327" cy="214.146" r="1.167"/>
			<circle fill="#007A9C" cx="169.788" cy="216.293" r="1.167"/>
			<circle fill="#007A9C" cx="178.813" cy="216.293" r="1.166"/>
			<circle fill="#007A9C" cx="160.829" cy="216.812" r="1.166"/>
			<circle fill="#007A9C" cx="160.829" cy="221.958" r="1.166"/>
			<circle fill="#007A9C" cx="183.276" cy="229.396" r="1.167"/>
			<circle fill="#007A9C" cx="183.276" cy="224.25" r="1.167"/>
		</g>
		
			<rect x="216.447" y="196.706" opacity="0.4" fill="none" stroke="#007A9C" stroke-width="0.5669" stroke-miterlimit="10" width="20.369" height="12.819"/>
		<g>
			<g opacity="0.4">
				<path fill="#462754" d="M211.896,236.047c-0.802,0.067-1.604,0.1-2.406,0.126c-0.802,0.027-1.603,0.024-2.406,0.038
					c-0.802-0.014-1.604-0.013-2.406-0.038c-0.801-0.026-1.603-0.059-2.406-0.126c0.803-0.069,1.605-0.102,2.406-0.128
					c0.801-0.026,1.604-0.024,2.406-0.037c0.803,0.014,1.604,0.01,2.406,0.037C210.293,235.947,211.094,235.979,211.896,236.047z"/>
			</g>
		</g>
		<g>
			<g opacity="0.4">
				<path fill="#462754" d="M211.896,237.207c-0.802,0.068-1.604,0.1-2.406,0.126c-0.802,0.027-1.603,0.025-2.406,0.039
					c-0.802-0.013-1.604-0.013-2.406-0.039c-0.801-0.024-1.603-0.058-2.406-0.126c0.803-0.069,1.605-0.101,2.406-0.127
					c0.801-0.026,1.604-0.025,2.406-0.037c0.803,0.014,1.604,0.011,2.406,0.037S211.094,237.14,211.896,237.207z"/>
			</g>
		</g>
		<g>
			<g opacity="0.4">
				<path fill="#462754" d="M211.896,238.368c-0.802,0.067-1.604,0.1-2.406,0.126c-0.802,0.025-1.603,0.024-2.406,0.038
					c-0.802-0.013-1.604-0.013-2.406-0.037c-0.801-0.027-1.603-0.06-2.406-0.127c0.803-0.069,1.605-0.102,2.406-0.128
					c0.801-0.026,1.604-0.024,2.406-0.038c0.803,0.015,1.604,0.012,2.406,0.038S211.094,238.3,211.896,238.368z"/>
			</g>
		</g>
		<g>
			<g opacity="0.4">
				<path fill="#462754" d="M211.896,239.528c-0.802,0.068-1.604,0.1-2.406,0.126c-0.802,0.027-1.603,0.025-2.406,0.039
					c-0.802-0.013-1.604-0.012-2.406-0.037c-0.801-0.028-1.603-0.06-2.406-0.128c0.803-0.067,1.605-0.101,2.406-0.127
					c0.801-0.026,1.604-0.025,2.406-0.037c0.803,0.014,1.604,0.011,2.406,0.038C210.293,239.428,211.094,239.461,211.896,239.528z"
					/>
			</g>
		</g>
		<g>
			<g opacity="0.4">
				<path fill="#462754" d="M211.896,240.689c-0.802,0.069-1.604,0.1-2.406,0.126c-0.802,0.027-1.603,0.026-2.406,0.038
					c-0.802-0.012-1.604-0.011-2.406-0.037c-0.801-0.027-1.603-0.058-2.406-0.127c0.803-0.069,1.605-0.1,2.406-0.128
					c0.801-0.026,1.604-0.024,2.406-0.037c0.803,0.014,1.604,0.011,2.406,0.039C210.293,240.59,211.094,240.621,211.896,240.689z"/>
			</g>
		</g>
		<g>
			<g opacity="0.4">
				<path fill="#462754" d="M211.896,241.85c-0.802,0.068-1.604,0.102-2.406,0.126c-0.802,0.027-1.603,0.025-2.406,0.039
					c-0.802-0.013-1.604-0.012-2.406-0.037c-0.801-0.026-1.603-0.059-2.406-0.128c0.803-0.067,1.605-0.101,2.406-0.127
					c0.801-0.026,1.604-0.025,2.406-0.037c0.803,0.014,1.604,0.011,2.406,0.038C210.293,241.75,211.094,241.782,211.896,241.85z"/>
			</g>
		</g>
		
			<rect x="201.217" y="235.197" opacity="0.4" fill="none" stroke="#007A9C" stroke-width="0.5669" stroke-miterlimit="10" width="11.839" height="7.451"/>
		<g>
			<g opacity="0.4">
				<path fill="#462754" d="M243.255,223.466c-0.801,0.069-1.604,0.1-2.406,0.127c-0.801,0.026-1.604,0.024-2.406,0.038
					c-0.801-0.013-1.604-0.012-2.406-0.038c-0.801-0.027-1.603-0.058-2.406-0.127c0.803-0.067,1.605-0.1,2.406-0.127
					c0.802-0.026,1.605-0.025,2.406-0.037c0.802,0.014,1.605,0.011,2.406,0.038C241.652,223.366,242.455,223.398,243.255,223.466z"
					/>
			</g>
		</g>
		<g>
			<g opacity="0.4">
				<path fill="#462754" d="M243.255,224.627c-0.801,0.068-1.604,0.101-2.406,0.127c-0.801,0.026-1.604,0.024-2.406,0.039
					c-0.801-0.015-1.604-0.013-2.406-0.039c-0.801-0.026-1.603-0.059-2.406-0.127c0.803-0.068,1.605-0.1,2.406-0.128
					c0.802-0.026,1.605-0.024,2.406-0.037c0.802,0.014,1.605,0.011,2.406,0.039C241.652,224.527,242.455,224.559,243.255,224.627z"
					/>
			</g>
		</g>
		<g>
			<g opacity="0.4">
				<path fill="#462754" d="M243.255,225.787c-0.801,0.069-1.604,0.102-2.406,0.127c-0.801,0.028-1.604,0.025-2.406,0.039
					c-0.801-0.014-1.604-0.013-2.406-0.039c-0.801-0.025-1.603-0.058-2.406-0.127c0.803-0.067,1.605-0.1,2.406-0.127
					c0.802-0.025,1.605-0.025,2.406-0.037c0.802,0.014,1.605,0.012,2.406,0.038C241.652,225.688,242.455,225.72,243.255,225.787z"/>
			</g>
		</g>
		<g>
			<g opacity="0.4">
				<path fill="#462754" d="M243.255,226.949c-0.801,0.067-1.604,0.1-2.406,0.126c-0.801,0.027-1.604,0.024-2.406,0.037
					c-0.801-0.013-1.604-0.011-2.406-0.037c-0.801-0.026-1.603-0.059-2.406-0.126c0.803-0.069,1.605-0.101,2.406-0.127
					c0.802-0.026,1.605-0.025,2.406-0.039c0.802,0.014,1.605,0.011,2.406,0.039C241.652,226.849,242.455,226.88,243.255,226.949z"/>
			</g>
		</g>
		<g>
			<g opacity="0.4">
				<path fill="#462754" d="M243.255,228.108c-0.801,0.069-1.604,0.1-2.406,0.128c-0.801,0.025-1.604,0.024-2.406,0.038
					c-0.801-0.014-1.604-0.013-2.406-0.038c-0.801-0.026-1.603-0.059-2.406-0.128c0.803-0.067,1.605-0.1,2.406-0.126
					c0.802-0.026,1.605-0.024,2.406-0.038c0.802,0.014,1.605,0.012,2.406,0.038C241.652,228.009,242.455,228.041,243.255,228.108z"
					/>
			</g>
		</g>
		<g>
			<g opacity="0.4">
				<path fill="#462754" d="M243.255,229.27c-0.801,0.069-1.604,0.101-2.406,0.127c-0.801,0.026-1.604,0.025-2.406,0.037
					c-0.801-0.012-1.604-0.011-2.406-0.036c-0.801-0.027-1.603-0.059-2.406-0.128c0.803-0.068,1.605-0.1,2.406-0.126
					c0.802-0.026,1.605-0.025,2.406-0.039c0.802,0.014,1.605,0.011,2.406,0.039C241.652,229.17,242.455,229.201,243.255,229.27z"/>
			</g>
		</g>
		
			<rect x="232.576" y="222.618" opacity="0.4" fill="none" stroke="#007A9C" stroke-width="0.5669" stroke-miterlimit="10" width="11.839" height="7.449"/>
		<g>
			<g opacity="0.4">
				<path fill="#462754" d="M167.463,232.508c-0.801,0.067-1.604,0.1-2.406,0.126s-1.604,0.024-2.406,0.037
					c-0.802-0.011-1.604-0.011-2.406-0.036c-0.802-0.027-1.604-0.06-2.406-0.127c0.801-0.069,1.604-0.101,2.406-0.127
					s1.604-0.025,2.406-0.039c0.802,0.014,1.604,0.011,2.406,0.039C165.86,232.407,166.662,232.438,167.463,232.508z"/>
			</g>
		</g>
		<g>
			<g opacity="0.4">
				<path fill="#462754" d="M167.463,233.668c-0.801,0.068-1.604,0.1-2.406,0.126c-0.802,0.028-1.604,0.025-2.406,0.039
					c-0.802-0.013-1.604-0.011-2.406-0.037c-0.802-0.028-1.604-0.06-2.406-0.128c0.801-0.068,1.604-0.101,2.406-0.127
					s1.604-0.024,2.406-0.039c0.802,0.015,1.604,0.013,2.406,0.039S166.662,233.6,167.463,233.668z"/>
			</g>
		</g>
		<g>
			<g opacity="0.4">
				<path fill="#462754" d="M167.463,234.829c-0.801,0.067-1.604,0.1-2.406,0.126c-0.802,0.027-1.604,0.024-2.406,0.039
					c-0.802-0.013-1.604-0.012-2.406-0.039c-0.802-0.026-1.604-0.059-2.406-0.126c0.801-0.069,1.604-0.1,2.406-0.127
					c0.802-0.026,1.604-0.025,2.406-0.039c0.802,0.014,1.604,0.013,2.406,0.039C165.86,234.729,166.662,234.76,167.463,234.829z"/>
			</g>
		</g>
		<g>
			<g opacity="0.4">
				<path fill="#462754" d="M167.463,235.99c-0.801,0.067-1.604,0.1-2.406,0.125c-0.802,0.028-1.604,0.025-2.406,0.039
					c-0.802-0.014-1.604-0.011-2.406-0.037c-0.802-0.027-1.604-0.06-2.406-0.127c0.801-0.069,1.604-0.102,2.406-0.128
					s1.604-0.024,2.406-0.037c0.802,0.014,1.604,0.011,2.406,0.037C165.86,235.891,166.662,235.922,167.463,235.99z"/>
			</g>
		</g>
		<g>
			<g opacity="0.4">
				<path fill="#462754" d="M167.463,237.15c-0.801,0.067-1.604,0.1-2.406,0.126c-0.802,0.027-1.604,0.024-2.406,0.039
					c-0.802-0.013-1.604-0.013-2.406-0.039s-1.604-0.057-2.406-0.126c0.801-0.069,1.604-0.101,2.406-0.127s1.604-0.025,2.406-0.039
					c0.802,0.016,1.604,0.013,2.406,0.039C165.86,237.051,166.662,237.083,167.463,237.15z"/>
			</g>
		</g>
		<g>
			<g opacity="0.4">
				<path fill="#462754" d="M167.463,238.312c-0.801,0.067-1.604,0.1-2.406,0.125c-0.802,0.028-1.604,0.025-2.406,0.039
					c-0.802-0.013-1.604-0.011-2.406-0.039c-0.802-0.024-1.604-0.057-2.406-0.125c0.801-0.069,1.604-0.102,2.406-0.128
					s1.604-0.024,2.406-0.037c0.802,0.014,1.604,0.011,2.406,0.037S166.662,238.243,167.463,238.312z"/>
			</g>
		</g>
		
			<rect x="156.782" y="231.658" opacity="0.4" fill="none" stroke="#007A9C" stroke-width="0.5669" stroke-miterlimit="10" width="11.839" height="7.451"/>
	</g>
	<g>
		<path fill="#C8DBFB" d="M376.662,343.666l-88.234,0.283c-2.811,0.011-5.092-3.52-5.097-7.881l-0.079-58.855
			c-0.006-4.36,2.268-7.907,5.076-7.915l88.234-0.282c2.81-0.011,5.092,3.521,5.098,7.884l0.078,58.854
			C381.744,340.114,379.472,343.659,376.662,343.666z"/>
		<g>
			<g>
				<path opacity="0.7" fill="#C9E4FF" d="M365.381,298.137v-6.748h-6.471v6.748c-3.668,1.325-6.291,4.837-6.291,8.962
					c0,5.261,4.266,9.526,9.527,9.526c5.261,0,9.525-4.266,9.525-9.526C371.672,302.974,369.05,299.462,365.381,298.137z"/>
				<g>
					<g>
						<path fill="#462754" d="M364.409,299.05c-0.021-1.244-0.048-2.489-0.056-3.733c-0.014-1.244-0.022-2.488-0.023-3.733
							l0.079,0.08l-2.263,0.008l-2.264-0.008l0.08-0.08c-0.002,1.245-0.011,2.489-0.025,3.733c-0.008,1.244-0.035,2.489-0.055,3.733
							c-0.021-1.244-0.048-2.489-0.056-3.733c-0.015-1.244-0.022-2.488-0.024-3.733v-0.079h0.08l2.264-0.008l2.263,0.008h0.079
							v0.079c-0.001,1.245-0.01,2.489-0.023,3.733C364.457,296.561,364.429,297.806,364.409,299.05z"/>
					</g>
				</g>
				<polygon fill="#BA8F6E" points="364.101,293.607 360.191,293.607 359.985,289.491 364.307,289.491 				"/>
				<path fill="#C9E4FF" d="M365.313,292.052h-6.402c-0.366,0-0.663-0.297-0.663-0.663l0,0c0-0.366,0.297-0.663,0.663-0.663h6.402
					c0.367,0,0.664,0.297,0.664,0.663l0,0C365.977,291.755,365.68,292.052,365.313,292.052z"/>
				<g>
					<path fill="#8DC63F" d="M362.146,315.491c4.635,0,8.392-3.758,8.392-8.393c0-0.961-0.163-1.883-0.461-2.743h-15.862
						c-0.298,0.86-0.461,1.782-0.461,2.743C353.754,311.733,357.511,315.491,362.146,315.491z"/>
				</g>
				<g>
					<path fill="#462754" d="M359.985,298.987c-0.651,0.21-1.278,0.482-1.865,0.823c-0.586,0.341-1.138,0.74-1.628,1.207
						c-0.501,0.456-0.939,0.978-1.321,1.538s-0.698,1.166-0.956,1.8c0.189-0.658,0.479-1.289,0.844-1.873
						c0.365-0.586,0.813-1.117,1.314-1.593c0.51-0.465,1.072-0.875,1.683-1.196C358.664,299.372,359.314,299.128,359.985,298.987z"
						/>
				</g>
				<g>
					<path fill="#462754" d="M370.077,304.355c-0.255-0.624-0.565-1.223-0.94-1.776c-0.375-0.553-0.805-1.07-1.295-1.522
						c-0.48-0.463-1.021-0.861-1.596-1.204c-0.574-0.342-1.189-0.618-1.828-0.835c0.659,0.147,1.297,0.396,1.895,0.719
						s1.149,0.731,1.649,1.193c0.49,0.473,0.93,0.999,1.287,1.577S369.891,303.707,370.077,304.355z"/>
				</g>
				<circle fill="#A2D65A" cx="368.019" cy="306.233" r="0.208"/>
				<circle fill="#A2D65A" cx="362.652" cy="306.034" r="0.533"/>
				<circle fill="#A2D65A" cx="364.154" cy="307.84" r="0.651"/>
				<circle fill="#A2D65A" cx="365.032" cy="310.651" r="0.368"/>
				<circle fill="#A2D65A" cx="360.705" cy="311.337" r="0.461"/>
				<circle fill="#A2D65A" cx="359.431" cy="307.846" r="0.375"/>
				<circle fill="#A2D65A" cx="356.381" cy="305.567" r="0.553"/>
				<circle fill="#A2D65A" cx="358.053" cy="310.406" r="0.529"/>
				<circle fill="#A2D65A" cx="362.106" cy="308.55" r="0.359"/>
				<circle fill="#A2D65A" cx="367.182" cy="308.311" r="0.342"/>
				<circle fill="#A2D65A" cx="365.935" cy="305.911" r="0.225"/>
				<circle fill="#A2D65A" cx="356.315" cy="308.339" r="0.323"/>
				<path fill="#009896" d="M370.457,313.421h-16.623c-0.295,0-0.537-0.241-0.537-0.537l0,0c0-0.296,0.242-0.538,0.537-0.538h16.623
					c0.296,0,0.538,0.242,0.538,0.538l0,0C370.995,313.18,370.753,313.421,370.457,313.421z"/>
				<g>
					
						<line fill="none" stroke="#009896" stroke-width="8.5039" stroke-linecap="round" stroke-linejoin="round" stroke-miterlimit="10" x1="367.292" y1="313.029" x2="370.09" y2="330.407"/>
					
						<line fill="none" stroke="#009896" stroke-width="8.5039" stroke-linecap="round" stroke-linejoin="round" stroke-miterlimit="10" x1="357" y1="313.029" x2="354.202" y2="330.407"/>
				</g>
			</g>
			<g>
				<g>
					<path fill="#BCBEC0" d="M303.854,314.671L303.854,314.671c-2.091-1.173-2.835-3.817-1.663-5.909l6.634-11.831l7.571,4.245
						l-6.633,11.832C308.591,315.099,305.945,315.844,303.854,314.671z"/>
					<polygon fill="#A7A9AC" points="316.207,299.203 310.607,296.063 308.825,296.931 316.396,301.176 					"/>
					
						<rect x="303.409" y="299.274" transform="matrix(0.8722 0.4892 -0.4892 0.8722 189.2163 -111.8254)" fill="#6D6E71" width="10.399" height="13.835"/>
					<g>
						<g>
							<path fill="#462754" d="M310.292,313.82c-0.773-0.393-1.537-0.802-2.3-1.213c-0.764-0.411-1.519-0.837-2.277-1.254
								c-0.753-0.43-1.51-0.854-2.258-1.289c-0.75-0.437-1.497-0.875-2.235-1.33c0.773,0.392,1.538,0.801,2.301,1.213
								s1.519,0.836,2.276,1.254c0.753,0.431,1.51,0.854,2.258,1.289C308.807,312.927,309.554,313.365,310.292,313.82z"/>
						</g>
					</g>
					<g>
						<g>
							<path fill="#462754" d="M306.926,298.563c0.773,0.393,1.537,0.802,2.3,1.213s1.519,0.836,2.278,1.254
								c0.752,0.43,1.508,0.853,2.258,1.289c0.748,0.437,1.496,0.875,2.234,1.33c-0.773-0.393-1.538-0.802-2.301-1.213
								c-0.763-0.412-1.518-0.836-2.277-1.254c-0.752-0.431-1.509-0.854-2.258-1.289
								C308.411,299.456,307.664,299.018,306.926,298.563z"/>
						</g>
					</g>
					
						<rect x="311.601" y="292.216" transform="matrix(0.8723 0.489 -0.489 0.8723 184.5038 -116.2539)" fill="#BCBEC0" width="6.443" height="5.787"/>
					
						<rect x="300.644" y="313.813" transform="matrix(0.8722 0.4892 -0.4892 0.8722 193.6315 -107.6037)" fill="#AAACAD" width="4.136" height="5.788"/>
					<g>
						<g>
							<path fill="#462754" d="M305.658,315.683c-0.318-0.137-0.627-0.291-0.935-0.447c-0.309-0.155-0.61-0.321-0.912-0.488
								c-0.601-0.34-1.194-0.69-1.762-1.088c0.636,0.277,1.245,0.601,1.847,0.936c0.301,0.171,0.6,0.341,0.893,0.523
								C305.083,315.299,305.375,315.482,305.658,315.683z"/>
						</g>
					</g>
					<g>
						<g>
							<path fill="#462754" d="M299.768,317.729c0.318,0.138,0.627,0.291,0.935,0.447c0.309,0.155,0.61,0.321,0.912,0.488
								c0.601,0.34,1.194,0.69,1.762,1.088c-0.636-0.277-1.244-0.601-1.847-0.936c-0.3-0.171-0.6-0.341-0.893-0.523
								C300.343,318.113,300.051,317.93,299.768,317.729z"/>
						</g>
					</g>
					<polygon fill="#808285" points="302.182,320.786 299.51,319.287 299.5,318.228 303.09,320.24 					"/>
					
						<rect x="300.645" y="315.463" transform="matrix(0.8723 0.4889 -0.4889 0.8723 193.495 -107.5689)" fill="#939598" width="4.137" height="2.486"/>
					
						<rect x="300.644" y="316.35" transform="matrix(0.8722 0.4891 -0.4891 0.8722 193.5824 -107.5914)" fill="#A7A9AC" width="4.137" height="0.712"/>
					
						<rect x="312.588" y="291.574" transform="matrix(0.8722 0.4891 -0.4891 0.8722 183.3989 -117.3773)" fill="#6D6E71" width="7.562" height="1.555"/>
				</g>
				<g>
					<path fill="#6D6E71" d="M311.223,331.666l-1.848-4.181c3.849-1.701,6.336-5.52,6.336-9.727c0-3.666-1.853-7.026-4.955-8.989
						l2.443-3.863c4.436,2.806,7.082,7.61,7.082,12.853C320.281,323.774,316.727,329.233,311.223,331.666z"/>
				</g>
				
					<rect x="297.129" y="326.546" transform="matrix(0.9594 0.2819 -0.2819 0.9594 104.295 -71.2957)" fill="#BCBEC0" width="5.567" height="0.499"/>
				<rect x="296.822" y="326.335" fill="#6D6E71" width="11.057" height="0.921"/>
				<rect x="294.287" y="322.956" fill="#939598" width="13.592" height="1.382"/>
				<g>
					<path fill="#BCBEC0" d="M290.986,335.473h26.568v-2.564c0-1.23-0.373-2.433-1.07-3.446l-4.508-6.552
						c-0.643-0.933-1.701-1.49-2.834-1.49h-1.389c-0.652,0-1.18,0.528-1.18,1.18v3.927c0,3.414-2.768,6.182-6.182,6.182h-5.915
						c-1.601,0-3.008,1.063-3.445,2.603L290.986,335.473z"/>
				</g>
				<g>
					<polygon fill="#462754" points="291.529,334.477 294.783,334.434 298.036,334.409 304.543,334.39 311.049,334.409 
						314.302,334.434 317.555,334.477 314.302,334.52 311.049,334.544 304.543,334.563 298.036,334.543 294.783,334.52 					"/>
				</g>
				<g>
					<g>
						<path fill="#462754" d="M310.299,323.498c0.002,0.361-0.143,0.721-0.396,0.982c-0.25,0.265-0.609,0.43-0.982,0.438
							c-0.372,0.012-0.753-0.13-1.026-0.394c-0.277-0.263-0.438-0.644-0.438-1.027s0.161-0.765,0.438-1.027
							c0.273-0.264,0.654-0.405,1.026-0.394c0.373,0.009,0.733,0.174,0.983,0.438C310.156,322.778,310.301,323.137,310.299,323.498z
							 M310.299,323.498c-0.001-0.361-0.152-0.719-0.412-0.965c-0.26-0.248-0.616-0.38-0.966-0.369
							c-0.351,0.01-0.687,0.165-0.921,0.413c-0.236,0.247-0.371,0.583-0.369,0.921c-0.002,0.339,0.133,0.675,0.369,0.921
							c0.234,0.249,0.57,0.403,0.921,0.413c0.35,0.012,0.706-0.12,0.966-0.368C310.146,324.217,310.298,323.859,310.299,323.498z"/>
					</g>
				</g>
				<g>
					<g>
						<path fill="#462754" d="M309.789,323.498c0.012,0.459-0.379,0.897-0.868,0.912c-0.239,0.012-0.486-0.075-0.667-0.245
							c-0.182-0.168-0.289-0.416-0.289-0.667c0-0.25,0.107-0.499,0.289-0.667c0.18-0.17,0.428-0.257,0.667-0.245
							C309.41,322.601,309.801,323.04,309.789,323.498z M309.789,323.498c0-0.228-0.098-0.453-0.263-0.605
							c-0.165-0.153-0.39-0.23-0.605-0.219c-0.442,0.016-0.791,0.413-0.781,0.824c-0.01,0.412,0.339,0.81,0.781,0.825
							c0.216,0.012,0.44-0.065,0.605-0.22C309.691,323.951,309.789,323.726,309.789,323.498z"/>
					</g>
				</g>
				<circle fill="#939598" cx="312.18" cy="307.138" r="3.398"/>
				<g>
					<g>
						<circle fill="#BCBEC0" cx="312.18" cy="307.138" r="2.143"/>
					</g>
				</g>
				<g>
					<g>
						<path fill="#462754" d="M313.695,307.138c0.006,0.396-0.154,0.795-0.436,1.08c-0.275,0.289-0.671,0.47-1.08,0.479
							c-0.408,0.012-0.824-0.145-1.124-0.435c-0.299-0.291-0.476-0.704-0.479-1.124c0.002-0.42,0.18-0.834,0.478-1.125
							c0.3-0.291,0.717-0.446,1.125-0.435c0.409,0.009,0.805,0.189,1.08,0.479C313.541,306.342,313.701,306.74,313.695,307.138z
							 M313.695,307.138c-0.004-0.397-0.17-0.788-0.453-1.063c-0.284-0.274-0.678-0.421-1.063-0.409
							c-0.387,0.009-0.758,0.18-1.019,0.453c-0.266,0.27-0.414,0.644-0.409,1.019c-0.006,0.374,0.144,0.749,0.409,1.019
							c0.26,0.273,0.632,0.443,1.019,0.453c0.385,0.012,0.779-0.135,1.063-0.409C313.525,307.925,313.691,307.535,313.695,307.138z"
							/>
					</g>
				</g>
			</g>
			<g>
				<path opacity="0.7" fill="#C9E4FF" d="M367.864,315.594v-7.078h-6.472v7.078c0,1.799-0.378,3.578-1.11,5.223l-4.786,10.748
					c-0.818,1.837,0.526,3.908,2.538,3.908h13.188c2.012,0,3.356-2.071,2.538-3.908l-4.786-10.748
					C368.242,319.172,367.864,317.393,367.864,315.594z"/>
				<g>
					<path fill="#DB4772" d="M356.52,333.678c0.34,0.522,0.891,0.822,1.515,0.822h13.188c0.623,0,1.176-0.3,1.515-0.822
						c0.34-0.522,0.389-1.148,0.136-1.718l-4.258-9.56h-7.975l-4.256,9.56C356.131,332.529,356.18,333.155,356.52,333.678z"/>
				</g>
				<g>
					<path fill="#462754" d="M368.615,322.4c-0.238-0.53-0.491-1.055-0.72-1.591c-0.226-0.538-0.418-1.09-0.575-1.651
						c-0.313-1.126-0.473-2.293-0.488-3.462c-0.02-2.329-0.018-4.657-0.023-6.986l0.083,0.083l-4.526,0.001l0.083-0.084
						c-0.007,2.329-0.003,4.657-0.024,6.986c-0.015,1.169-0.174,2.336-0.486,3.462c-0.158,0.562-0.352,1.113-0.576,1.651
						c-0.229,0.536-0.48,1.061-0.721,1.591c0.229-0.535,0.471-1.065,0.688-1.605c0.213-0.541,0.393-1.094,0.537-1.656
						c0.287-1.125,0.439-2.283,0.438-3.443l-0.021-6.985l-0.001-0.083h0.084l4.526,0.001h0.083v0.082l-0.021,6.985
						c-0.001,1.16,0.152,2.318,0.438,3.443c0.145,0.563,0.326,1.115,0.539,1.656C368.146,321.335,368.388,321.865,368.615,322.4z"/>
				</g>
				<polygon fill="#BA8F6E" points="366.584,310.734 362.674,310.734 362.468,306.618 366.789,306.618 				"/>
				<path fill="#C9E4FF" d="M367.795,309.179h-6.402c-0.365,0-0.662-0.297-0.662-0.663l0,0c0-0.366,0.297-0.663,0.662-0.663h6.402
					c0.367,0,0.664,0.297,0.664,0.663l0,0C368.459,308.882,368.162,309.179,367.795,309.179z"/>
				<g>
					<g>
						<circle fill="#DB6587" cx="361.533" cy="324.522" r="0.426"/>
					</g>
				</g>
				<g>
					<g>
						<circle fill="#DB6587" cx="362.588" cy="327.396" r="0.504"/>
					</g>
				</g>
				<g>
					<g>
						<circle fill="#DB6587" cx="365.966" cy="329.646" r="0.394"/>
					</g>
				</g>
				<g>
					<g>
						<circle fill="#DB6587" cx="366.824" cy="325.082" r="0.465"/>
					</g>
				</g>
				<g>
					<g>
						<circle fill="#DB6587" cx="364.937" cy="326.306" r="0.279"/>
					</g>
				</g>
				<g>
					<g>
						<circle fill="#DB6587" cx="369.253" cy="328.851" r="0.38"/>
					</g>
				</g>
				<g>
					<g>
						<circle fill="#DB6587" cx="361.112" cy="330.919" r="0.763"/>
					</g>
				</g>
				<g>
					<g>
						<circle fill="#DB6587" cx="365.023" cy="331.846" r="0.32"/>
					</g>
				</g>
				<g>
					<g>
						<circle fill="#DB6587" cx="369.053" cy="331.005" r="0.377"/>
					</g>
				</g>
			</g>
			<g>
				<path opacity="0.7" fill="#C9E4FF" d="M323.881,315.069v-6.748h-6.471v6.748c-3.669,1.324-6.291,4.837-6.291,8.962
					c0,5.261,4.266,9.525,9.525,9.525c5.262,0,9.527-4.265,9.527-9.525C330.172,319.906,327.549,316.394,323.881,315.069z"/>
				<g>
					<g>
						<path fill="#462754" d="M322.908,315.982c-0.02-1.245-0.047-2.489-0.055-3.733c-0.015-1.244-0.023-2.488-0.024-3.733
							l0.079,0.08l-2.264,0.008l-2.262-0.008l0.078-0.08c0,1.245-0.009,2.489-0.023,3.733c-0.008,1.244-0.035,2.488-0.055,3.733
							c-0.021-1.245-0.049-2.489-0.056-3.733c-0.015-1.244-0.023-2.488-0.024-3.733v-0.079h0.08l2.262-0.008l2.264,0.008h0.08v0.079
							c-0.002,1.245-0.01,2.489-0.025,3.733C322.955,313.493,322.928,314.737,322.908,315.982z"/>
					</g>
				</g>
				<polygon fill="#BA8F6E" points="322.601,310.54 318.69,310.54 318.484,306.424 322.806,306.424 				"/>
				<path fill="#C9E4FF" d="M323.813,308.984h-6.402c-0.367,0-0.664-0.297-0.664-0.663l0,0c0-0.366,0.297-0.663,0.664-0.663h6.402
					c0.366,0,0.662,0.297,0.662,0.663l0,0C324.475,308.688,324.179,308.984,323.813,308.984z"/>
				<g>
					<path fill="#9C72B2" d="M320.645,332.424c4.636,0,8.393-3.758,8.393-8.393c0-0.961-0.163-1.883-0.461-2.743h-15.862
						c-0.298,0.86-0.461,1.782-0.461,2.743C312.253,328.666,316.01,332.424,320.645,332.424z"/>
				</g>
				<g>
					<path fill="#462754" d="M318.484,315.92c-0.65,0.21-1.277,0.482-1.865,0.823c-0.586,0.341-1.137,0.74-1.629,1.207
						c-0.5,0.456-0.938,0.978-1.319,1.538c-0.383,0.561-0.699,1.166-0.957,1.8c0.189-0.658,0.479-1.289,0.844-1.873
						c0.364-0.585,0.813-1.117,1.314-1.593c0.511-0.465,1.073-0.875,1.683-1.196S317.814,316.061,318.484,315.92z"/>
				</g>
				<g>
					<path fill="#462754" d="M328.576,321.288c-0.254-0.624-0.565-1.223-0.94-1.776c-0.375-0.553-0.804-1.069-1.294-1.522
						c-0.481-0.463-1.021-0.862-1.596-1.204s-1.189-0.617-1.828-0.835c0.658,0.147,1.297,0.396,1.895,0.719s1.148,0.731,1.648,1.193
						c0.49,0.472,0.93,0.999,1.287,1.577C328.105,320.017,328.391,320.64,328.576,321.288z"/>
				</g>
				<circle fill="#AC7EC4" cx="314.536" cy="323.714" r="0.208"/>
				<circle fill="#AC7EC4" cx="319.903" cy="323.515" r="0.534"/>
				<circle fill="#AC7EC4" cx="318.402" cy="325.319" r="0.651"/>
				<circle fill="#AC7EC4" cx="317.524" cy="328.132" r="0.368"/>
				<circle fill="#AC7EC4" cx="321.85" cy="328.817" r="0.461"/>
				<circle fill="#AC7EC4" cx="323.125" cy="325.326" r="0.375"/>
				<circle fill="#AC7EC4" cx="326.174" cy="323.048" r="0.552"/>
				<circle fill="#AC7EC4" cx="324.502" cy="327.887" r="0.529"/>
				<circle fill="#AC7EC4" cx="320.45" cy="326.03" r="0.358"/>
				<circle fill="#AC7EC4" cx="315.374" cy="325.791" r="0.341"/>
				<circle fill="#AC7EC4" cx="316.62" cy="323.391" r="0.226"/>
				<circle fill="#AC7EC4" cx="326.239" cy="325.819" r="0.323"/>
				<path fill="#009896" d="M328.957,330.354h-16.623c-0.296,0-0.538-0.241-0.538-0.537l0,0c0-0.296,0.242-0.538,0.538-0.538h16.623
					c0.296,0,0.537,0.242,0.537,0.538l0,0C329.494,330.112,329.253,330.354,328.957,330.354z"/>
				<g>
					
						<line fill="none" stroke="#009896" stroke-width="5.6693" stroke-linecap="round" stroke-linejoin="round" stroke-miterlimit="10" x1="325.791" y1="329.962" x2="328.59" y2="334.89"/>
					
						<line fill="none" stroke="#009896" stroke-width="5.6693" stroke-linecap="round" stroke-linejoin="round" stroke-miterlimit="10" x1="315.499" y1="329.962" x2="312.701" y2="334.89"/>
				</g>
			</g>
			<g>
				<path fill="#F9ED32" d="M333.248,324.7c0,1.534-0.563,1.806-1.258,1.806s-1.258-0.271-1.258-1.806s1.258-3.751,1.258-3.751
					S333.248,323.166,333.248,324.7z"/>
				<path fill="#FEA200" d="M332.925,325.165c0,1.14-0.419,1.341-0.935,1.341s-0.935-0.201-0.935-1.341s0.935-2.786,0.935-2.786
					S332.925,324.025,332.925,325.165z"/>
				<path fill="#FF6D00" d="M332.593,325.642c0,0.734-0.271,0.864-0.603,0.864c-0.333,0-0.603-0.13-0.603-0.864
					s0.603-1.795,0.603-1.795S332.593,324.907,332.593,325.642z"/>
				<g>
					<path fill="#00AFBB" d="M351.689,312.307c0,0.734-0.27,0.864-0.602,0.864s-0.603-0.13-0.603-0.864s0.603-1.795,0.603-1.795
						S351.689,311.572,351.689,312.307z"/>
				</g>
				<path opacity="0.7" fill="#C9E4FF" d="M334.191,329.284l-0.16-0.593c-0.045-0.168-0.197-0.285-0.371-0.285h-3.34
					c-0.174,0-0.326,0.117-0.371,0.285l-0.159,0.593c-0.112,0.415-0.399,0.762-0.788,0.947l-1.488,0.714
					c-0.68,0.326-1.01,1.109-0.766,1.823l0.799,2.341c0.073,0.217,0.277,0.363,0.508,0.363h7.871c0.23,0,0.435-0.146,0.508-0.363
					l0.799-2.341c0.244-0.714-0.086-1.497-0.766-1.823l-1.488-0.714C334.59,330.046,334.303,329.699,334.191,329.284z"/>
				<g>
					<path fill="#462754" d="M327.311,332.911c-0.068-0.2-0.168-0.396-0.169-0.616c-0.007-0.216,0.058-0.435,0.185-0.614
						c0.063-0.09,0.139-0.17,0.228-0.236c0.088-0.068,0.19-0.112,0.282-0.161l0.573-0.284l0.573-0.283
						c0.193-0.094,0.379-0.183,0.539-0.313c0.323-0.255,0.559-0.615,0.664-1.012l-0.002,0.01l0.135-1.101l0.008-0.07l0.072-0.001
						c1.061-0.007,2.123-0.007,3.184,0l0.072,0.001l0.008,0.07l0.135,1.101l-0.002-0.01c0.104,0.396,0.341,0.756,0.664,1.012
						c0.16,0.131,0.346,0.22,0.539,0.313l0.573,0.283l0.573,0.284c0.093,0.049,0.194,0.093,0.283,0.161
						c0.088,0.066,0.164,0.146,0.227,0.236c0.127,0.18,0.191,0.398,0.185,0.614c-0.001,0.221-0.101,0.416-0.169,0.616
						c0.06-0.203,0.15-0.403,0.141-0.616c-0.002-0.21-0.074-0.417-0.201-0.581c-0.063-0.082-0.139-0.154-0.223-0.213
						c-0.084-0.06-0.182-0.097-0.279-0.143l-0.58-0.268l-0.579-0.27c-0.19-0.087-0.396-0.179-0.571-0.313
						c-0.354-0.264-0.615-0.649-0.729-1.078l-0.001-0.005l-0.001-0.005l-0.144-1.101l0.08,0.071c-1.061,0.008-2.123,0.007-3.184,0
						l0.08-0.071l-0.145,1.101v0.005l-0.001,0.005c-0.114,0.429-0.376,0.814-0.73,1.077c-0.175,0.136-0.38,0.228-0.57,0.314
						l-0.579,0.27l-0.581,0.268c-0.097,0.046-0.194,0.083-0.278,0.143c-0.084,0.059-0.16,0.13-0.223,0.213
						c-0.127,0.164-0.199,0.371-0.201,0.581C327.16,332.508,327.25,332.708,327.311,332.911z"/>
				</g>
				<path fill="#1B5988" d="M327.311,332.911l0.695,2.041c0.008,0.021,0.027,0.034,0.049,0.034h7.871
					c0.021,0,0.041-0.014,0.049-0.034l0.695-2.041H327.311z"/>
				
					<path fill="none" stroke="#FFFFFF" stroke-width="2.8347" stroke-linecap="round" stroke-linejoin="round" stroke-miterlimit="10" d="
					M331.99,326.034v2.726c0,1.763-0.531,3.484-1.524,4.94l-0.204,0.299c-0.22,0.322,0.011,0.759,0.4,0.759h2.1
					c0.463,0,0.663-0.585,0.298-0.869l0,0"/>
				<rect x="331.35" y="326.771" fill="#6D6E71" width="1.281" height="2.115"/>
				<rect x="330.035" y="327.274" fill="#58595B" width="3.91" height="1.132"/>
				<g>
					<path fill="#462754" d="M330.441,328.406c-0.07-0.188-0.085-0.377-0.088-0.565c0.002-0.188,0.018-0.378,0.088-0.566
						c0.068,0.188,0.084,0.378,0.086,0.566C330.525,328.029,330.51,328.219,330.441,328.406z"/>
				</g>
				<g>
					<path fill="#462754" d="M333.539,327.274c0.069,0.188,0.085,0.378,0.088,0.566c-0.002,0.188-0.018,0.378-0.088,0.565
						c-0.068-0.188-0.084-0.377-0.086-0.565C333.455,327.652,333.471,327.463,333.539,327.274z"/>
				</g>
				<g>
					<path fill="#462754" d="M331.061,328.406c-0.068-0.188-0.084-0.377-0.088-0.565c0.004-0.188,0.019-0.378,0.088-0.566
						c0.069,0.188,0.085,0.378,0.088,0.566C331.145,328.029,331.129,328.219,331.061,328.406z"/>
				</g>
				<g>
					<path fill="#462754" d="M332.92,327.274c0.068,0.188,0.084,0.378,0.088,0.566c-0.004,0.188-0.019,0.378-0.088,0.565
						c-0.069-0.188-0.085-0.377-0.088-0.565C332.836,327.652,332.852,327.463,332.92,327.274z"/>
				</g>
				<g>
					<path fill="#462754" d="M331.681,328.406c-0.069-0.188-0.085-0.377-0.087-0.565c0.002-0.188,0.018-0.378,0.087-0.566
						c0.069,0.188,0.085,0.378,0.087,0.566C331.765,328.029,331.749,328.219,331.681,328.406z"/>
				</g>
				<g>
					<path fill="#462754" d="M332.3,327.274c0.069,0.188,0.085,0.378,0.087,0.566c-0.002,0.188-0.018,0.378-0.087,0.565
						c-0.069-0.188-0.085-0.377-0.087-0.565C332.216,327.652,332.231,327.463,332.3,327.274z"/>
				</g>
				<path opacity="0.7" fill="#C9E4FF" d="M335.26,300.039v-7.077h-6.471v7.077c0,1.8-0.379,3.579-1.11,5.224l-4.786,10.748
					c-0.818,1.837,0.525,3.908,2.537,3.908h13.189c2.012,0,3.355-2.071,2.537-3.908l-4.785-10.748
					C335.639,303.618,335.26,301.839,335.26,300.039z"/>
				<g>
					<path fill="#F15A35" d="M323.916,318.124c0.339,0.522,0.891,0.822,1.514,0.822h13.189c0.623,0,1.175-0.3,1.515-0.822
						c0.339-0.522,0.388-1.148,0.135-1.718l-4.257-9.56h-7.975l-4.257,9.56C323.527,316.976,323.576,317.602,323.916,318.124z"/>
				</g>
				<g>
					<path fill="#462754" d="M336.012,306.847c-0.239-0.53-0.492-1.055-0.721-1.591c-0.225-0.538-0.418-1.09-0.574-1.651
						c-0.313-1.126-0.473-2.293-0.488-3.462c-0.02-2.329-0.018-4.657-0.023-6.986l0.082,0.083h-4.525l0.082-0.083
						c-0.006,2.329-0.002,4.657-0.023,6.986c-0.016,1.169-0.175,2.337-0.487,3.462c-0.157,0.562-0.351,1.113-0.575,1.651
						c-0.229,0.536-0.48,1.061-0.721,1.591c0.229-0.535,0.47-1.065,0.686-1.604c0.214-0.542,0.395-1.095,0.539-1.657
						c0.286-1.125,0.439-2.283,0.438-3.443l-0.021-6.985v-0.083h0.084l4.525,0.001h0.084v0.082l-0.021,6.985
						c-0.002,1.16,0.151,2.318,0.438,3.443c0.145,0.563,0.325,1.116,0.538,1.657C335.542,305.781,335.783,306.312,336.012,306.847z"
						/>
				</g>
				<g opacity="0.7">
					<path fill="#FFFFFF" d="M351.689,309.785h-1.166v-28.408c0-1.447-1.142-2.666-2.544-2.716
						c-0.468-0.017-0.918,0.086-1.317,0.296c0.477,0.604,0.777,1.352,0.816,2.155c0.006,0.129,0.006,0.259-0.001,0.388
						c-0.054,1.043-0.896,1.589-1.698,1.589l0,0c-0.805-0.001-1.646-0.548-1.699-1.592c-0.004-0.065-0.006-0.131-0.006-0.197
						c0-0.863,0.283-1.679,0.807-2.345c-0.315-0.165-0.666-0.268-1.037-0.29c-0.492-0.032-0.969,0.071-1.39,0.292
						c0.478,0.604,0.778,1.352,0.817,2.155c0.006,0.131,0.005,0.261-0.002,0.388c-0.054,1.043-0.895,1.589-1.697,1.589
						c0,0,0,0-0.001,0c-0.804-0.001-1.646-0.548-1.698-1.592c-0.004-0.065-0.006-0.131-0.006-0.197c0-0.851,0.289-1.679,0.809-2.344
						c-0.316-0.166-0.668-0.269-1.039-0.291c-0.492-0.032-0.969,0.071-1.391,0.292c0.479,0.604,0.778,1.352,0.816,2.156
						c0.007,0.129,0.007,0.259,0,0.387c-0.055,1.043-0.895,1.589-1.697,1.589c-0.001,0-0.001,0-0.001,0
						c-0.804-0.001-1.646-0.548-1.699-1.592c-0.003-0.065-0.005-0.131-0.005-0.197c0-0.851,0.289-1.679,0.808-2.344
						c-0.315-0.166-0.667-0.269-1.038-0.291c-0.741-0.048-1.441,0.206-1.978,0.71c-0.537,0.505-0.833,1.188-0.833,1.925v22.492
						h-1.166V281.3c0-1.046,0.438-2.058,1.199-2.774c0.774-0.728,1.786-1.091,2.85-1.025c0.678,0.042,1.312,0.27,1.852,0.632
						c0.689-0.463,1.505-0.683,2.355-0.632c0.678,0.042,1.313,0.27,1.853,0.632c0.688-0.463,1.505-0.683,2.354-0.632
						c0.678,0.042,1.313,0.27,1.854,0.632c0.658-0.442,1.438-0.668,2.251-0.637c2.023,0.072,3.669,1.813,3.669,3.882V309.785z
						 M337.359,279.709c-0.346,0.455-0.533,1.007-0.533,1.591c0,0.046,0.002,0.093,0.004,0.138c0.023,0.449,0.415,0.484,0.534,0.484
						h0.001c0.119,0,0.509-0.035,0.532-0.482c0.005-0.089,0.005-0.18,0.001-0.27C337.872,280.627,337.674,280.122,337.359,279.709z
						 M341.566,279.709c-0.346,0.455-0.532,1.007-0.532,1.591c0,0.046,0.001,0.092,0.003,0.138c0.023,0.449,0.416,0.484,0.535,0.484
						l0,0c0.119,0,0.51-0.035,0.533-0.482c0.004-0.089,0.004-0.18,0-0.271C342.079,280.626,341.881,280.121,341.566,279.709z
						 M345.773,279.709c-0.346,0.455-0.531,1.008-0.531,1.591c0,0.046,0,0.092,0.003,0.138c0.022,0.449,0.415,0.484,0.534,0.484l0,0
						c0.119,0,0.51-0.035,0.533-0.482c0.004-0.09,0.005-0.181,0-0.271C346.287,280.626,346.089,280.122,345.773,279.709z"/>
				</g>
				<polygon fill="#BA8F6E" points="333.979,295.181 330.069,295.181 329.864,291.064 334.186,291.064 				"/>
				<path fill="#C9E4FF" d="M335.191,293.625h-6.402c-0.366,0-0.663-0.297-0.663-0.663l0,0c0-0.366,0.297-0.663,0.663-0.663h6.402
					c0.366,0,0.663,0.297,0.663,0.663l0,0C335.854,293.328,335.558,293.625,335.191,293.625z"/>
				<g>
					<path fill="#462754" d="M328.789,293.625c0.533-0.035,1.066-0.053,1.601-0.066c0.533-0.015,1.067-0.014,1.601-0.021
						c0.533,0.007,1.066,0.006,1.601,0.021c0.534,0.014,1.067,0.03,1.601,0.066c-0.533,0.036-1.066,0.054-1.601,0.067
						s-1.067,0.014-1.601,0.021c-0.533-0.008-1.067-0.006-1.601-0.021C329.855,293.679,329.322,293.661,328.789,293.625z"/>
				</g>
				<path fill="#C9E4FF" d="M336.468,278.956"/>
				<g>
					<path fill="#462754" d="M337.354,278.132c-0.114,0.18-0.258,0.32-0.404,0.456c-0.15,0.134-0.305,0.253-0.481,0.368
						c0.032-0.104,0.091-0.192,0.153-0.273c0.063-0.083,0.136-0.155,0.211-0.225C336.986,278.323,337.152,278.204,337.354,278.132z"
						/>
				</g>
				<g>
					<path fill="#462754" d="M338.24,278.92c-0.115,0.18-0.258,0.319-0.404,0.455c-0.151,0.134-0.305,0.254-0.482,0.369
						c0.033-0.104,0.092-0.192,0.154-0.274s0.136-0.155,0.211-0.225C337.872,279.111,338.039,278.992,338.24,278.92z"/>
				</g>
				<g>
					<path fill="#462754" d="M341.571,278.15c-0.114,0.18-0.259,0.319-0.405,0.456c-0.15,0.133-0.305,0.253-0.48,0.368
						c0.031-0.104,0.09-0.192,0.153-0.274s0.136-0.155,0.211-0.224C341.203,278.342,341.37,278.223,341.571,278.15z"/>
				</g>
				<g>
					<path fill="#462754" d="M342.457,278.938c-0.114,0.18-0.258,0.32-0.404,0.456c-0.15,0.134-0.305,0.253-0.481,0.369
						c0.032-0.104,0.091-0.192,0.154-0.274c0.063-0.082,0.136-0.155,0.21-0.225C342.09,279.13,342.256,279.01,342.457,278.938z"/>
				</g>
				<g>
					<path fill="#462754" d="M345.789,278.15c-0.115,0.18-0.258,0.319-0.404,0.456c-0.151,0.133-0.305,0.253-0.482,0.368
						c0.033-0.104,0.092-0.192,0.154-0.274s0.136-0.155,0.211-0.224C345.422,278.342,345.588,278.223,345.789,278.15z"/>
				</g>
				<g>
					<path fill="#462754" d="M346.676,278.938c-0.115,0.18-0.258,0.32-0.405,0.456c-0.15,0.134-0.304,0.253-0.481,0.369
						c0.032-0.104,0.091-0.192,0.154-0.274c0.063-0.082,0.135-0.155,0.211-0.225C346.308,279.13,346.475,279.01,346.676,278.938z"/>
				</g>
				<rect x="333.465" y="297.665" fill="#009896" width="9.883" height="0.583"/>
				<rect x="341.744" y="291.064" fill="#009896" width="1.594" height="44.408"/>
				<path fill="#00AFBB" d="M335.484,298.939h-6.668c-0.541,0-0.983-0.442-0.983-0.982l0,0c0-0.541,0.442-0.983,0.983-0.983h6.668
					c0.541,0,0.983,0.442,0.983,0.983l0,0C336.468,298.497,336.025,298.939,335.484,298.939z"/>
				<rect x="341.282" y="296.974" fill="#00AFBB" width="2.518" height="1.966"/>
				<rect x="341.282" y="331.982" fill="#00AFBB" width="2.518" height="1.967"/>
				<polygon fill="#007A9C" points="346.383,333.949 338.699,333.949 337.532,335.473 347.55,335.473 				"/>
				<g>
					<path fill="#462754" d="M341.282,332.378c0.42-0.068,0.839-0.084,1.259-0.087c0.42,0.002,0.839,0.018,1.259,0.087
						c-0.42,0.069-0.839,0.085-1.259,0.088C342.121,332.463,341.702,332.447,341.282,332.378z"/>
				</g>
				<g>
					<path fill="#462754" d="M341.282,297.319c0.42-0.069,0.839-0.084,1.259-0.088c0.42,0.003,0.839,0.019,1.259,0.088
						c-0.42,0.069-0.839,0.085-1.259,0.087C342.121,297.403,341.702,297.388,341.282,297.319z"/>
				</g>
				<rect x="341.282" y="289.634" fill="#00AFBB" width="2.518" height="1.966"/>
				<g>
					<path fill="#462754" d="M341.282,289.979c0.42-0.069,0.839-0.085,1.259-0.088c0.42,0.003,0.839,0.019,1.259,0.088
						c-0.42,0.068-0.839,0.084-1.259,0.087C342.121,290.063,341.702,290.048,341.282,289.979z"/>
				</g>
				<circle fill="#009896" cx="342.541" cy="297.957" r="0.445"/>
				<g>
					<g>
						<circle fill="#FF6F4D" cx="328.929" cy="308.969" r="0.427"/>
					</g>
				</g>
				<g>
					<g>
						<circle fill="#FF6F4D" cx="329.984" cy="311.842" r="0.504"/>
					</g>
				</g>
				<g>
					<g>
						<circle fill="#FF6F4D" cx="333.362" cy="314.092" r="0.394"/>
					</g>
				</g>
				<g>
					<g>
						<circle fill="#FF6F4D" cx="334.22" cy="309.528" r="0.464"/>
					</g>
				</g>
				<g>
					<g>
						<circle fill="#FF6F4D" cx="332.333" cy="310.752" r="0.279"/>
					</g>
				</g>
				<g>
					<g>
						<circle fill="#FF6F4D" cx="336.649" cy="313.297" r="0.38"/>
					</g>
				</g>
				<g>
					<g>
						<circle fill="#FF6F4D" cx="328.509" cy="315.365" r="0.763"/>
					</g>
				</g>
				<g>
					<g>
						<circle fill="#FF6F4D" cx="332.419" cy="316.292" r="0.319"/>
					</g>
				</g>
				<g>
					<g>
						<circle fill="#FF6F4D" cx="336.449" cy="315.451" r="0.377"/>
					</g>
				</g>
				<path opacity="0.7" fill="#C9E4FF" d="M349.232,335.473h9.58c1.049,0,1.898-0.851,1.898-1.898v-18.116h-14.933l1.556,3.104
					v15.012C347.334,334.622,348.184,335.473,349.232,335.473z"/>
				<g>
					<g>
						<path fill="#462754" d="M359.738,324.084c-0.035-0.641-0.053-1.282-0.066-1.923c-0.014-0.642-0.014-1.282-0.021-1.924
							c0.007-0.641,0.007-1.282,0.021-1.923c0.014-0.642,0.03-1.282,0.066-1.924c0.037,0.642,0.054,1.282,0.068,1.924
							c0.014,0.641,0.013,1.282,0.02,1.923c-0.008,0.642-0.006,1.282-0.021,1.924C359.791,322.802,359.775,323.443,359.738,324.084z
							"/>
					</g>
				</g>
				<g>
					<g>
						<path fill="#462754" d="M347.354,316.391c0.326,0.576,0.639,1.149,0.944,1.745c0.035,0.081,0.06,0.166,0.073,0.254
							c0.014,0.09,0.009,0.176,0.011,0.256l0.005,0.495l0.008,0.988c-0.008,0.659-0.007,1.318-0.021,1.978
							c-0.014,0.659-0.03,1.318-0.066,1.978c-0.037-0.659-0.053-1.318-0.067-1.978c-0.014-0.659-0.013-1.318-0.021-1.978
							l0.008-0.988l0.004-0.495c0.006-0.17,0-0.312-0.057-0.46c-0.13-0.291-0.279-0.595-0.416-0.892
							C347.623,316.993,347.483,316.694,347.354,316.391z"/>
					</g>
				</g>
				<g>
					<g>
						<path fill="#462754" d="M360.711,316.43c-1.201,0.036-2.403,0.053-3.605,0.067l-3.605,0.02l-3.605-0.02
							c-1.202-0.015-2.404-0.031-3.605-0.067c1.201-0.036,2.403-0.053,3.605-0.067l3.605-0.02l3.605,0.021
							C358.308,316.377,359.51,316.394,360.711,316.43z"/>
					</g>
				</g>
				<g>
					<g>
						<path fill="#00AFBB" d="M359.738,324.061v9.514c0,0.511-0.415,0.926-0.926,0.926h-9.58c-0.51,0-0.926-0.415-0.926-0.926
							v-9.514H359.738z"/>
					</g>
				</g>
				<g>
					<g>
						<path fill="#462754" d="M348.307,332.636c0.339-0.069,0.678-0.085,1.017-0.088c0.339,0.003,0.679,0.019,1.017,0.088
							c-0.338,0.069-0.678,0.084-1.017,0.087C348.984,332.72,348.646,332.704,348.307,332.636z"/>
					</g>
				</g>
				<g>
					<g>
						<path fill="#462754" d="M348.307,331.939c0.191-0.068,0.384-0.084,0.576-0.087c0.191,0.002,0.385,0.018,0.576,0.087
							c-0.191,0.069-0.385,0.085-0.576,0.088C348.69,332.024,348.498,332.009,348.307,331.939z"/>
					</g>
				</g>
				<g>
					<g>
						<path fill="#462754" d="M348.307,331.244c0.339-0.069,0.678-0.085,1.017-0.087c0.339,0.002,0.679,0.018,1.017,0.087
							c-0.338,0.069-0.678,0.085-1.017,0.087C348.984,331.328,348.646,331.313,348.307,331.244z"/>
					</g>
				</g>
				<g>
					<g>
						<path fill="#462754" d="M348.307,330.548c0.191-0.068,0.384-0.084,0.576-0.087c0.191,0.003,0.385,0.019,0.576,0.087
							c-0.191,0.069-0.385,0.085-0.576,0.088C348.69,330.633,348.498,330.617,348.307,330.548z"/>
					</g>
				</g>
				<g>
					<g>
						<path fill="#462754" d="M348.307,329.853c0.339-0.068,0.678-0.084,1.017-0.087c0.339,0.002,0.679,0.018,1.017,0.087
							c-0.338,0.069-0.678,0.085-1.017,0.088C348.984,329.937,348.646,329.921,348.307,329.853z"/>
					</g>
				</g>
				<g>
					<g>
						<path fill="#462754" d="M348.307,329.157c0.191-0.069,0.384-0.085,0.576-0.088c0.191,0.003,0.385,0.019,0.576,0.088
							c-0.191,0.069-0.385,0.085-0.576,0.087C348.69,329.241,348.498,329.226,348.307,329.157z"/>
					</g>
				</g>
				<g>
					<g>
						<path fill="#462754" d="M348.307,328.461c0.339-0.068,0.678-0.084,1.017-0.087c0.339,0.003,0.679,0.018,1.017,0.087
							c-0.338,0.069-0.678,0.085-1.017,0.088C348.984,328.546,348.646,328.53,348.307,328.461z"/>
					</g>
				</g>
				<g>
					<g>
						<path fill="#462754" d="M348.307,327.766c0.191-0.069,0.384-0.084,0.576-0.087c0.191,0.002,0.385,0.018,0.576,0.087
							c-0.191,0.069-0.385,0.085-0.576,0.087C348.69,327.85,348.498,327.835,348.307,327.766z"/>
					</g>
				</g>
				<g>
					<g>
						<path fill="#462754" d="M348.307,327.069c0.339-0.068,0.678-0.084,1.017-0.087c0.339,0.003,0.679,0.019,1.017,0.087
							c-0.338,0.069-0.678,0.085-1.017,0.088C348.984,327.154,348.646,327.139,348.307,327.069z"/>
					</g>
				</g>
				<g>
					<g>
						<path fill="#462754" d="M348.307,326.374c0.191-0.069,0.384-0.084,0.576-0.087c0.191,0.002,0.385,0.018,0.576,0.087
							c-0.191,0.069-0.385,0.085-0.576,0.087C348.69,326.458,348.498,326.443,348.307,326.374z"/>
					</g>
				</g>
				<g>
					<g>
						<path fill="#462754" d="M348.307,325.679c0.339-0.069,0.678-0.085,1.017-0.088c0.339,0.003,0.679,0.019,1.017,0.088
							c-0.338,0.069-0.678,0.085-1.017,0.087C348.984,325.763,348.646,325.747,348.307,325.679z"/>
					</g>
				</g>
				<g>
					<g>
						<path fill="#462754" d="M348.307,324.982c0.191-0.068,0.384-0.084,0.576-0.087c0.191,0.002,0.385,0.019,0.576,0.087
							c-0.191,0.069-0.385,0.085-0.576,0.088C348.69,325.067,348.498,325.052,348.307,324.982z"/>
					</g>
				</g>
				<g>
					<g>
						<path fill="#462754" d="M348.307,324.287c0.339-0.069,0.678-0.084,1.017-0.087c0.339,0.002,0.679,0.018,1.017,0.087
							c-0.338,0.069-0.678,0.085-1.017,0.087C348.984,324.371,348.646,324.355,348.307,324.287z"/>
					</g>
				</g>
				<g>
					<g>
						<path fill="#462754" d="M348.307,323.592c0.191-0.069,0.384-0.085,0.576-0.088c0.191,0.003,0.385,0.019,0.576,0.088
							c-0.191,0.068-0.385,0.084-0.576,0.087C348.69,323.676,348.498,323.66,348.307,323.592z"/>
					</g>
				</g>
				<g>
					<g>
						<path fill="#462754" d="M348.307,322.896c0.339-0.068,0.678-0.084,1.017-0.087c0.339,0.002,0.679,0.018,1.017,0.087
							c-0.338,0.069-0.678,0.085-1.017,0.087C348.984,322.98,348.646,322.965,348.307,322.896z"/>
					</g>
				</g>
				<g>
					<g>
						<path fill="#462754" d="M348.307,322.2c0.191-0.069,0.384-0.085,0.576-0.088c0.191,0.003,0.385,0.019,0.576,0.088
							c-0.191,0.069-0.385,0.085-0.576,0.087C348.69,322.284,348.498,322.269,348.307,322.2z"/>
					</g>
				</g>
				<g>
					<g>
						<path fill="#462754" d="M348.307,321.504c0.339-0.068,0.678-0.084,1.017-0.087c0.339,0.003,0.679,0.018,1.017,0.087
							c-0.338,0.069-0.678,0.085-1.017,0.088C348.984,321.589,348.646,321.573,348.307,321.504z"/>
					</g>
				</g>
				<g>
					<g>
						<path fill="#462754" d="M348.307,320.809c0.191-0.069,0.384-0.084,0.576-0.088c0.191,0.003,0.385,0.019,0.576,0.088
							c-0.191,0.069-0.385,0.085-0.576,0.088C348.69,320.893,348.498,320.878,348.307,320.809z"/>
					</g>
				</g>
				<g>
					<g>
						<path fill="#462754" d="M348.307,320.113c0.339-0.069,0.678-0.085,1.017-0.088c0.339,0.003,0.679,0.019,1.017,0.088
							c-0.338,0.069-0.678,0.084-1.017,0.087C348.984,320.197,348.646,320.182,348.307,320.113z"/>
					</g>
				</g>
			</g>
			<g>
				<path fill="#96D0A2" d="M367.723,335.374h-2.838c-0.563,0-1.019-0.456-1.019-1.02v-5.834c0-0.563,0.456-1.02,1.019-1.02h2.838
					c0.563,0,1.02,0.456,1.02,1.02v5.834C368.742,334.918,368.285,335.374,367.723,335.374z"/>
				<rect x="364.726" y="326.862" fill="#96D0A2" width="3.157" height="1.238"/>
				<rect x="364.546" y="325.902" fill="#F1F2F2" width="3.517" height="1.239"/>
				<g>
					<path fill="#462754" d="M363.866,328.7c0.406-0.036,0.813-0.053,1.219-0.067c0.407-0.016,0.813-0.018,1.219-0.02
						c0.813,0.002,1.626,0.018,2.438,0.087c-0.813,0.069-1.625,0.085-2.438,0.087c-0.405-0.002-0.812-0.004-1.219-0.021
						C364.68,328.753,364.272,328.736,363.866,328.7z"/>
				</g>
				<g>
					<path fill="#462754" d="M363.866,333.615c0.406-0.035,0.813-0.053,1.219-0.066c0.407-0.016,0.813-0.019,1.219-0.021
						c0.813,0.003,1.626,0.019,2.438,0.087c-0.813,0.069-1.625,0.085-2.438,0.088c-0.405-0.002-0.812-0.005-1.219-0.021
						C364.68,333.669,364.272,333.651,363.866,333.615z"/>
				</g>
			</g>
			<g>
				<path fill="#E6E7E8" d="M363.337,335.374h-3.694c-0.733,0-1.327-0.594-1.327-1.327v-9.568c0-0.732,0.594-1.326,1.327-1.326
					h3.694c0.733,0,1.327,0.594,1.327,1.326v9.568C364.664,334.78,364.07,335.374,363.337,335.374z"/>
				<rect x="359.434" y="322.319" fill="#E6E7E8" width="4.111" height="1.613"/>
				<rect x="359.2" y="321.07" fill="#808080" width="4.579" height="1.613"/>
				<g>
					<path fill="#462754" d="M358.315,324.713c0.529-0.036,1.058-0.053,1.587-0.066c0.529-0.015,1.059-0.013,1.588-0.021
						c0.529,0.007,1.058,0.006,1.587,0.02c0.528,0.015,1.058,0.031,1.587,0.067c-0.529,0.036-1.059,0.054-1.587,0.067
						c-0.529,0.014-1.058,0.014-1.587,0.021c-0.529-0.008-1.059-0.007-1.588-0.021S358.845,324.749,358.315,324.713z"/>
				</g>
				<g>
					<path fill="#462754" d="M358.315,333.084c0.529-0.036,1.058-0.053,1.587-0.066c0.529-0.015,1.059-0.013,1.588-0.021
						c0.529,0.007,1.058,0.006,1.587,0.02c0.528,0.015,1.058,0.031,1.587,0.067c-0.529,0.036-1.059,0.054-1.587,0.067
						c-0.529,0.014-1.058,0.014-1.587,0.021c-0.529-0.008-1.059-0.007-1.588-0.021S358.845,333.12,358.315,333.084z"/>
				</g>
			</g>
			<g>
				<path fill="#78B1AF" d="M359.015,335.374h-2.837c-0.563,0-1.02-0.456-1.02-1.02v-5.834c0-0.563,0.456-1.02,1.02-1.02h2.837
					c0.563,0,1.019,0.456,1.019,1.02v5.834C360.033,334.918,359.577,335.374,359.015,335.374z"/>
				<rect x="356.018" y="326.862" fill="#78B1AF" width="3.156" height="1.238"/>
				<rect x="355.838" y="325.902" fill="#F1F2F2" width="3.516" height="1.239"/>
				<g>
					<path fill="#462754" d="M355.158,328.7c0.406-0.036,0.813-0.053,1.219-0.067c0.406-0.016,0.813-0.018,1.219-0.02
						c0.813,0.002,1.625,0.018,2.438,0.087c-0.813,0.069-1.625,0.085-2.438,0.087c-0.406-0.002-0.813-0.004-1.219-0.021
						C355.971,328.753,355.564,328.736,355.158,328.7z"/>
				</g>
				<g>
					<path fill="#462754" d="M355.158,333.615c0.406-0.035,0.813-0.053,1.219-0.066c0.406-0.016,0.813-0.019,1.219-0.021
						c0.813,0.003,1.625,0.019,2.438,0.087c-0.813,0.069-1.625,0.085-2.438,0.088c-0.406-0.002-0.813-0.005-1.219-0.021
						C355.971,333.669,355.564,333.651,355.158,333.615z"/>
				</g>
			</g>
		</g>
	</g>
</g>
</svg>
